%TF.GenerationSoftware,KiCad,Pcbnew,9.0.2*%
%TF.CreationDate,2025-06-17T16:20:43-04:00*%
%TF.ProjectId,Reaction_shield2,52656163-7469-46f6-9e5f-736869656c64,rev?*%
%TF.SameCoordinates,Original*%
%TF.FileFunction,Copper,L1,Top*%
%TF.FilePolarity,Positive*%
%FSLAX46Y46*%
G04 Gerber Fmt 4.6, Leading zero omitted, Abs format (unit mm)*
G04 Created by KiCad (PCBNEW 9.0.2) date 2025-06-17 16:20:43*
%MOMM*%
%LPD*%
G01*
G04 APERTURE LIST*
%TA.AperFunction,ComponentPad*%
%ADD10C,1.800000*%
%TD*%
%TA.AperFunction,ComponentPad*%
%ADD11R,1.800000X1.800000*%
%TD*%
%TA.AperFunction,ComponentPad*%
%ADD12C,2.000000*%
%TD*%
%TA.AperFunction,ComponentPad*%
%ADD13R,2.000000X2.000000*%
%TD*%
%TA.AperFunction,ComponentPad*%
%ADD14C,1.600000*%
%TD*%
%TA.AperFunction,ComponentPad*%
%ADD15R,1.700000X1.700000*%
%TD*%
%TA.AperFunction,ComponentPad*%
%ADD16O,1.700000X1.700000*%
%TD*%
%TA.AperFunction,Conductor*%
%ADD17C,0.250000*%
%TD*%
G04 APERTURE END LIST*
D10*
%TO.P,W1,2,A*%
%TO.N,Net-(W1-A)*%
X149540000Y-74000000D03*
D11*
%TO.P,W1,1,K*%
%TO.N,GND*%
X147000000Y-74000000D03*
%TD*%
%TO.P,Y1,1,K*%
%TO.N,GND*%
X134460000Y-78500000D03*
D10*
%TO.P,Y1,2,A*%
%TO.N,Net-(Y1-A)*%
X137000000Y-78500000D03*
%TD*%
%TO.P,G1,2,A*%
%TO.N,Net-(G1-A)*%
X137040000Y-88500000D03*
D11*
%TO.P,G1,1,K*%
%TO.N,GND*%
X134500000Y-88500000D03*
%TD*%
D10*
%TO.P,R6,2,A*%
%TO.N,Net-(R6-A)*%
X137000000Y-68000000D03*
D11*
%TO.P,R6,1,K*%
%TO.N,GND*%
X134460000Y-68000000D03*
%TD*%
%TO.P,W2,1,K*%
%TO.N,GND*%
X120000000Y-74000000D03*
D10*
%TO.P,W2,2,A*%
%TO.N,Net-(W2-A)*%
X122540000Y-74000000D03*
%TD*%
D12*
%TO.P,BZ1,2,-*%
%TO.N,GND*%
X124000000Y-91800000D03*
D13*
%TO.P,BZ1,1,+*%
%TO.N,/7*%
X124000000Y-84200000D03*
%TD*%
D14*
%TO.P,R1,2*%
%TO.N,/12*%
X120000000Y-54190000D03*
%TO.P,R1,1*%
%TO.N,Net-(R6-A)*%
X120000000Y-61810000D03*
%TD*%
%TO.P,R2,1*%
%TO.N,Net-(Y1-A)*%
X126500000Y-62000000D03*
%TO.P,R2,2*%
%TO.N,/\u002A11*%
X126500000Y-54380000D03*
%TD*%
%TO.P,R3,1*%
%TO.N,Net-(G1-A)*%
X133500000Y-62000000D03*
%TO.P,R3,2*%
%TO.N,/\u002A10*%
X133500000Y-54380000D03*
%TD*%
%TO.P,R4,2*%
%TO.N,/\u002A9*%
X140000000Y-54380000D03*
%TO.P,R4,1*%
%TO.N,Net-(W1-A)*%
X140000000Y-62000000D03*
%TD*%
%TO.P,R5,2*%
%TO.N,/8*%
X146500000Y-54380000D03*
%TO.P,R5,1*%
%TO.N,Net-(W2-A)*%
X146500000Y-62000000D03*
%TD*%
D12*
%TO.P,btn2,1,1*%
%TO.N,/13*%
X108750000Y-71750000D03*
X115250000Y-71750000D03*
%TO.P,btn2,2,2*%
%TO.N,GND*%
X108750000Y-76250000D03*
X115250000Y-76250000D03*
%TD*%
%TO.P,btn1,1,1*%
%TO.N,/\u002A6*%
X153500000Y-71500000D03*
X160000000Y-71500000D03*
%TO.P,btn1,2,2*%
%TO.N,GND*%
X153500000Y-76000000D03*
X160000000Y-76000000D03*
%TD*%
D15*
%TO.P,J1,1,Pin_1*%
%TO.N,unconnected-(J1-Pin_1-Pad1)*%
X127940000Y-97460000D03*
D16*
%TO.P,J1,2,Pin_2*%
%TO.N,/IOREF*%
X130480000Y-97460000D03*
%TO.P,J1,3,Pin_3*%
%TO.N,/~{RESET}*%
X133020000Y-97460000D03*
%TO.P,J1,4,Pin_4*%
%TO.N,+3V3*%
X135560000Y-97460000D03*
%TO.P,J1,5,Pin_5*%
%TO.N,+5V*%
X138100000Y-97460000D03*
%TO.P,J1,6,Pin_6*%
%TO.N,GND*%
X140640000Y-97460000D03*
%TO.P,J1,7,Pin_7*%
X143180000Y-97460000D03*
%TO.P,J1,8,Pin_8*%
%TO.N,VCC*%
X145720000Y-97460000D03*
%TD*%
D15*
%TO.P,J3,1,Pin_1*%
%TO.N,/A0*%
X150800000Y-97460000D03*
D16*
%TO.P,J3,2,Pin_2*%
%TO.N,/A1*%
X153340000Y-97460000D03*
%TO.P,J3,3,Pin_3*%
%TO.N,/A2*%
X155880000Y-97460000D03*
%TO.P,J3,4,Pin_4*%
%TO.N,/A3*%
X158420000Y-97460000D03*
%TO.P,J3,5,Pin_5*%
%TO.N,/SDA{slash}A4*%
X160960000Y-97460000D03*
%TO.P,J3,6,Pin_6*%
%TO.N,/SCL{slash}A5*%
X163500000Y-97460000D03*
%TD*%
D15*
%TO.P,J2,1,Pin_1*%
%TO.N,/SCL{slash}A5*%
X118796000Y-49200000D03*
D16*
%TO.P,J2,2,Pin_2*%
%TO.N,/SDA{slash}A4*%
X121336000Y-49200000D03*
%TO.P,J2,3,Pin_3*%
%TO.N,/AREF*%
X123876000Y-49200000D03*
%TO.P,J2,4,Pin_4*%
%TO.N,GND*%
X126416000Y-49200000D03*
%TO.P,J2,5,Pin_5*%
%TO.N,/13*%
X128956000Y-49200000D03*
%TO.P,J2,6,Pin_6*%
%TO.N,/12*%
X131496000Y-49200000D03*
%TO.P,J2,7,Pin_7*%
%TO.N,/\u002A11*%
X134036000Y-49200000D03*
%TO.P,J2,8,Pin_8*%
%TO.N,/\u002A10*%
X136576000Y-49200000D03*
%TO.P,J2,9,Pin_9*%
%TO.N,/\u002A9*%
X139116000Y-49200000D03*
%TO.P,J2,10,Pin_10*%
%TO.N,/8*%
X141656000Y-49200000D03*
%TD*%
D15*
%TO.P,J4,1,Pin_1*%
%TO.N,/7*%
X145720000Y-49200000D03*
D16*
%TO.P,J4,2,Pin_2*%
%TO.N,/\u002A6*%
X148260000Y-49200000D03*
%TO.P,J4,3,Pin_3*%
%TO.N,/\u002A5*%
X150800000Y-49200000D03*
%TO.P,J4,4,Pin_4*%
%TO.N,/4*%
X153340000Y-49200000D03*
%TO.P,J4,5,Pin_5*%
%TO.N,/\u002A3*%
X155880000Y-49200000D03*
%TO.P,J4,6,Pin_6*%
%TO.N,/2*%
X158420000Y-49200000D03*
%TO.P,J4,7,Pin_7*%
%TO.N,/TX{slash}1*%
X160960000Y-49200000D03*
%TO.P,J4,8,Pin_8*%
%TO.N,/RX{slash}0*%
X163500000Y-49200000D03*
%TD*%
D17*
%TO.N,Net-(W2-A)*%
X122540000Y-74000000D02*
X122540000Y-85392000D01*
X145500000Y-63000000D02*
X146500000Y-62000000D01*
X122540000Y-85392000D02*
X127776000Y-90628000D01*
X127776000Y-90628000D02*
X137921446Y-90628000D01*
X137921446Y-90628000D02*
X145500000Y-83049446D01*
X145500000Y-83049446D02*
X145500000Y-63000000D01*
%TO.N,/\u002A6*%
X153500000Y-71500000D02*
X148260000Y-66260000D01*
X148260000Y-66260000D02*
X148260000Y-49200000D01*
%TO.N,/13*%
X115250000Y-71750000D02*
X115250000Y-57347595D01*
X115250000Y-57347595D02*
X122097595Y-50500000D01*
X122097595Y-50500000D02*
X127656000Y-50500000D01*
X127656000Y-50500000D02*
X128956000Y-49200000D01*
%TO.N,/7*%
X124000000Y-84200000D02*
X129977000Y-90177000D01*
X129977000Y-90177000D02*
X137734636Y-90177000D01*
X144774000Y-57698405D02*
X147626000Y-54846405D01*
X137734636Y-90177000D02*
X144774000Y-83137636D01*
X144774000Y-83137636D02*
X144774000Y-57698405D01*
X147626000Y-54846405D02*
X147626000Y-51106000D01*
X147626000Y-51106000D02*
X145720000Y-49200000D01*
%TO.N,Net-(G1-A)*%
X133500000Y-62000000D02*
X138677000Y-67177000D01*
X138677000Y-86863000D02*
X137040000Y-88500000D01*
X138677000Y-67177000D02*
X138677000Y-86863000D01*
%TO.N,Net-(Y1-A)*%
X126500000Y-62000000D02*
X131718174Y-62000000D01*
X136492174Y-66774000D02*
X137507826Y-66774000D01*
X131718174Y-62000000D02*
X136492174Y-66774000D01*
X138226000Y-77274000D02*
X137000000Y-78500000D01*
X137507826Y-66774000D02*
X138226000Y-67492174D01*
X138226000Y-67492174D02*
X138226000Y-77274000D01*
%TO.N,Net-(R6-A)*%
X120000000Y-61810000D02*
X121316000Y-63126000D01*
X121316000Y-63126000D02*
X132126000Y-63126000D01*
X132126000Y-63126000D02*
X137000000Y-68000000D01*
%TO.N,/8*%
X146500000Y-54380000D02*
X141656000Y-49536000D01*
X141656000Y-49536000D02*
X141656000Y-49200000D01*
%TO.N,/\u002A9*%
X140000000Y-54380000D02*
X140000000Y-50084000D01*
X140000000Y-50084000D02*
X139116000Y-49200000D01*
%TO.N,/\u002A10*%
X133500000Y-54380000D02*
X133500000Y-52276000D01*
X133500000Y-52276000D02*
X136576000Y-49200000D01*
%TO.N,/\u002A11*%
X126500000Y-54380000D02*
X128856000Y-54380000D01*
X128856000Y-54380000D02*
X134036000Y-49200000D01*
%TO.N,/12*%
X120000000Y-54190000D02*
X120936000Y-53254000D01*
X127442000Y-53254000D02*
X131496000Y-49200000D01*
X120936000Y-53254000D02*
X127442000Y-53254000D01*
%TO.N,/\u002A6*%
X153500000Y-71500000D02*
X160000000Y-71500000D01*
%TO.N,/13*%
X108750000Y-71750000D02*
X115250000Y-71750000D01*
%TO.N,Net-(W1-A)*%
X142362810Y-59637190D02*
X140000000Y-62000000D01*
X142362810Y-51569926D02*
X142362810Y-59637190D01*
X140480000Y-49687116D02*
X142362810Y-51569926D01*
X141168884Y-48024000D02*
X140480000Y-48712884D01*
X140480000Y-48712884D02*
X140480000Y-49687116D01*
X148747116Y-48024000D02*
X141168884Y-48024000D01*
X149436000Y-48712884D02*
X148747116Y-48024000D01*
X149436000Y-49687116D02*
X149436000Y-48712884D01*
X161326000Y-61577116D02*
X149436000Y-49687116D01*
X161326000Y-72049248D02*
X161326000Y-61577116D01*
X159375248Y-74000000D02*
X161326000Y-72049248D01*
X149540000Y-74000000D02*
X159375248Y-74000000D01*
%TD*%
M02*
