%TF.GenerationSoftware,KiCad,Pcbnew,9.0.2*%
%TF.CreationDate,2025-06-17T16:20:43-04:00*%
%TF.ProjectId,Reaction_shield2,52656163-7469-46f6-9e5f-736869656c64,rev?*%
%TF.SameCoordinates,Original*%
%TF.FileFunction,Copper,L2,Bot*%
%TF.FilePolarity,Positive*%
%FSLAX46Y46*%
G04 Gerber Fmt 4.6, Leading zero omitted, Abs format (unit mm)*
G04 Created by KiCad (PCBNEW 9.0.2) date 2025-06-17 16:20:43*
%MOMM*%
%LPD*%
G01*
G04 APERTURE LIST*
%TA.AperFunction,ComponentPad*%
%ADD10C,1.800000*%
%TD*%
%TA.AperFunction,ComponentPad*%
%ADD11R,1.800000X1.800000*%
%TD*%
%TA.AperFunction,ComponentPad*%
%ADD12C,2.000000*%
%TD*%
%TA.AperFunction,ComponentPad*%
%ADD13R,2.000000X2.000000*%
%TD*%
%TA.AperFunction,ComponentPad*%
%ADD14C,1.600000*%
%TD*%
%TA.AperFunction,ComponentPad*%
%ADD15R,1.700000X1.700000*%
%TD*%
%TA.AperFunction,ComponentPad*%
%ADD16O,1.700000X1.700000*%
%TD*%
G04 APERTURE END LIST*
D10*
%TO.P,W1,2,A*%
%TO.N,Net-(W1-A)*%
X149540000Y-74000000D03*
D11*
%TO.P,W1,1,K*%
%TO.N,GND*%
X147000000Y-74000000D03*
%TD*%
%TO.P,Y1,1,K*%
%TO.N,GND*%
X134460000Y-78500000D03*
D10*
%TO.P,Y1,2,A*%
%TO.N,Net-(Y1-A)*%
X137000000Y-78500000D03*
%TD*%
%TO.P,G1,2,A*%
%TO.N,Net-(G1-A)*%
X137040000Y-88500000D03*
D11*
%TO.P,G1,1,K*%
%TO.N,GND*%
X134500000Y-88500000D03*
%TD*%
D10*
%TO.P,R6,2,A*%
%TO.N,Net-(R6-A)*%
X137000000Y-68000000D03*
D11*
%TO.P,R6,1,K*%
%TO.N,GND*%
X134460000Y-68000000D03*
%TD*%
%TO.P,W2,1,K*%
%TO.N,GND*%
X120000000Y-74000000D03*
D10*
%TO.P,W2,2,A*%
%TO.N,Net-(W2-A)*%
X122540000Y-74000000D03*
%TD*%
D12*
%TO.P,BZ1,2,-*%
%TO.N,GND*%
X124000000Y-91800000D03*
D13*
%TO.P,BZ1,1,+*%
%TO.N,/7*%
X124000000Y-84200000D03*
%TD*%
D14*
%TO.P,R1,2*%
%TO.N,/12*%
X120000000Y-54190000D03*
%TO.P,R1,1*%
%TO.N,Net-(R6-A)*%
X120000000Y-61810000D03*
%TD*%
%TO.P,R2,1*%
%TO.N,Net-(Y1-A)*%
X126500000Y-62000000D03*
%TO.P,R2,2*%
%TO.N,/\u002A11*%
X126500000Y-54380000D03*
%TD*%
%TO.P,R3,1*%
%TO.N,Net-(G1-A)*%
X133500000Y-62000000D03*
%TO.P,R3,2*%
%TO.N,/\u002A10*%
X133500000Y-54380000D03*
%TD*%
%TO.P,R4,2*%
%TO.N,/\u002A9*%
X140000000Y-54380000D03*
%TO.P,R4,1*%
%TO.N,Net-(W1-A)*%
X140000000Y-62000000D03*
%TD*%
%TO.P,R5,2*%
%TO.N,/8*%
X146500000Y-54380000D03*
%TO.P,R5,1*%
%TO.N,Net-(W2-A)*%
X146500000Y-62000000D03*
%TD*%
D12*
%TO.P,btn2,1,1*%
%TO.N,/13*%
X108750000Y-71750000D03*
X115250000Y-71750000D03*
%TO.P,btn2,2,2*%
%TO.N,GND*%
X108750000Y-76250000D03*
X115250000Y-76250000D03*
%TD*%
%TO.P,btn1,1,1*%
%TO.N,/\u002A6*%
X153500000Y-71500000D03*
X160000000Y-71500000D03*
%TO.P,btn1,2,2*%
%TO.N,GND*%
X153500000Y-76000000D03*
X160000000Y-76000000D03*
%TD*%
D15*
%TO.P,J1,1,Pin_1*%
%TO.N,unconnected-(J1-Pin_1-Pad1)*%
X127940000Y-97460000D03*
D16*
%TO.P,J1,2,Pin_2*%
%TO.N,/IOREF*%
X130480000Y-97460000D03*
%TO.P,J1,3,Pin_3*%
%TO.N,/~{RESET}*%
X133020000Y-97460000D03*
%TO.P,J1,4,Pin_4*%
%TO.N,+3V3*%
X135560000Y-97460000D03*
%TO.P,J1,5,Pin_5*%
%TO.N,+5V*%
X138100000Y-97460000D03*
%TO.P,J1,6,Pin_6*%
%TO.N,GND*%
X140640000Y-97460000D03*
%TO.P,J1,7,Pin_7*%
X143180000Y-97460000D03*
%TO.P,J1,8,Pin_8*%
%TO.N,VCC*%
X145720000Y-97460000D03*
%TD*%
D15*
%TO.P,J3,1,Pin_1*%
%TO.N,/A0*%
X150800000Y-97460000D03*
D16*
%TO.P,J3,2,Pin_2*%
%TO.N,/A1*%
X153340000Y-97460000D03*
%TO.P,J3,3,Pin_3*%
%TO.N,/A2*%
X155880000Y-97460000D03*
%TO.P,J3,4,Pin_4*%
%TO.N,/A3*%
X158420000Y-97460000D03*
%TO.P,J3,5,Pin_5*%
%TO.N,/SDA{slash}A4*%
X160960000Y-97460000D03*
%TO.P,J3,6,Pin_6*%
%TO.N,/SCL{slash}A5*%
X163500000Y-97460000D03*
%TD*%
D15*
%TO.P,J2,1,Pin_1*%
%TO.N,/SCL{slash}A5*%
X118796000Y-49200000D03*
D16*
%TO.P,J2,2,Pin_2*%
%TO.N,/SDA{slash}A4*%
X121336000Y-49200000D03*
%TO.P,J2,3,Pin_3*%
%TO.N,/AREF*%
X123876000Y-49200000D03*
%TO.P,J2,4,Pin_4*%
%TO.N,GND*%
X126416000Y-49200000D03*
%TO.P,J2,5,Pin_5*%
%TO.N,/13*%
X128956000Y-49200000D03*
%TO.P,J2,6,Pin_6*%
%TO.N,/12*%
X131496000Y-49200000D03*
%TO.P,J2,7,Pin_7*%
%TO.N,/\u002A11*%
X134036000Y-49200000D03*
%TO.P,J2,8,Pin_8*%
%TO.N,/\u002A10*%
X136576000Y-49200000D03*
%TO.P,J2,9,Pin_9*%
%TO.N,/\u002A9*%
X139116000Y-49200000D03*
%TO.P,J2,10,Pin_10*%
%TO.N,/8*%
X141656000Y-49200000D03*
%TD*%
D15*
%TO.P,J4,1,Pin_1*%
%TO.N,/7*%
X145720000Y-49200000D03*
D16*
%TO.P,J4,2,Pin_2*%
%TO.N,/\u002A6*%
X148260000Y-49200000D03*
%TO.P,J4,3,Pin_3*%
%TO.N,/\u002A5*%
X150800000Y-49200000D03*
%TO.P,J4,4,Pin_4*%
%TO.N,/4*%
X153340000Y-49200000D03*
%TO.P,J4,5,Pin_5*%
%TO.N,/\u002A3*%
X155880000Y-49200000D03*
%TO.P,J4,6,Pin_6*%
%TO.N,/2*%
X158420000Y-49200000D03*
%TO.P,J4,7,Pin_7*%
%TO.N,/TX{slash}1*%
X160960000Y-49200000D03*
%TO.P,J4,8,Pin_8*%
%TO.N,/RX{slash}0*%
X163500000Y-49200000D03*
%TD*%
%TA.AperFunction,Conductor*%
%TO.N,GND*%
G36*
X142714075Y-97267007D02*
G01*
X142680000Y-97394174D01*
X142680000Y-97525826D01*
X142714075Y-97652993D01*
X142746988Y-97710000D01*
X141073012Y-97710000D01*
X141105925Y-97652993D01*
X141140000Y-97525826D01*
X141140000Y-97394174D01*
X141105925Y-97267007D01*
X141073012Y-97210000D01*
X142746988Y-97210000D01*
X142714075Y-97267007D01*
G37*
%TD.AperFunction*%
%TA.AperFunction,Conductor*%
G36*
X163484404Y-46755185D02*
G01*
X163505046Y-46771819D01*
X165928181Y-49194954D01*
X165961666Y-49256277D01*
X165964500Y-49282635D01*
X165964500Y-59344982D01*
X165964500Y-59375018D01*
X165975994Y-59402767D01*
X165975995Y-59402768D01*
X168468181Y-61894954D01*
X168501666Y-61956277D01*
X168504500Y-61982635D01*
X168504500Y-96107364D01*
X168484815Y-96174403D01*
X168468181Y-96195045D01*
X165997233Y-98665994D01*
X165975995Y-98687231D01*
X165964500Y-98714982D01*
X165964500Y-99231907D01*
X165963903Y-99244061D01*
X165963903Y-99244062D01*
X165952505Y-99359778D01*
X165947763Y-99383618D01*
X165917832Y-99482290D01*
X165915789Y-99489024D01*
X165906486Y-99511482D01*
X165854561Y-99608627D01*
X165841056Y-99628839D01*
X165771176Y-99713988D01*
X165753988Y-99731176D01*
X165668839Y-99801056D01*
X165648627Y-99814561D01*
X165551482Y-99866486D01*
X165529028Y-99875787D01*
X165487028Y-99888528D01*
X165423618Y-99907763D01*
X165399778Y-99912505D01*
X165291162Y-99923203D01*
X165284060Y-99923903D01*
X165271907Y-99924500D01*
X100768093Y-99924500D01*
X100755939Y-99923903D01*
X100747995Y-99923120D01*
X100640221Y-99912505D01*
X100616381Y-99907763D01*
X100599445Y-99902625D01*
X100510968Y-99875786D01*
X100488517Y-99866486D01*
X100391372Y-99814561D01*
X100371160Y-99801056D01*
X100286011Y-99731176D01*
X100268823Y-99713988D01*
X100198943Y-99628839D01*
X100185438Y-99608627D01*
X100133510Y-99511476D01*
X100124215Y-99489037D01*
X100092234Y-99383612D01*
X100087494Y-99359777D01*
X100076097Y-99244061D01*
X100075500Y-99231907D01*
X100075500Y-97334038D01*
X112369500Y-97334038D01*
X112369500Y-97585961D01*
X112408910Y-97834785D01*
X112486760Y-98074383D01*
X112601132Y-98298848D01*
X112749201Y-98502649D01*
X112749205Y-98502654D01*
X112927345Y-98680794D01*
X112927350Y-98680798D01*
X113037587Y-98760889D01*
X113131155Y-98828870D01*
X113274184Y-98901747D01*
X113355616Y-98943239D01*
X113355618Y-98943239D01*
X113355621Y-98943241D01*
X113595215Y-99021090D01*
X113844038Y-99060500D01*
X113844039Y-99060500D01*
X114095961Y-99060500D01*
X114095962Y-99060500D01*
X114344785Y-99021090D01*
X114584379Y-98943241D01*
X114808845Y-98828870D01*
X115012656Y-98680793D01*
X115190793Y-98502656D01*
X115338870Y-98298845D01*
X115453241Y-98074379D01*
X115531090Y-97834785D01*
X115570500Y-97585962D01*
X115570500Y-97334038D01*
X115531090Y-97085215D01*
X115453241Y-96845621D01*
X115453239Y-96845618D01*
X115453239Y-96845616D01*
X115403498Y-96747994D01*
X115338870Y-96621155D01*
X115295416Y-96561345D01*
X126581500Y-96561345D01*
X126581500Y-98358654D01*
X126588011Y-98419202D01*
X126588011Y-98419204D01*
X126619138Y-98502656D01*
X126639111Y-98556204D01*
X126726739Y-98673261D01*
X126843796Y-98760889D01*
X126980799Y-98811989D01*
X127008050Y-98814918D01*
X127041345Y-98818499D01*
X127041362Y-98818500D01*
X128838638Y-98818500D01*
X128838654Y-98818499D01*
X128865692Y-98815591D01*
X128899201Y-98811989D01*
X129036204Y-98760889D01*
X129153261Y-98673261D01*
X129240889Y-98556204D01*
X129285957Y-98435371D01*
X129327827Y-98379442D01*
X129393291Y-98355025D01*
X129461564Y-98369877D01*
X129489818Y-98391028D01*
X129594996Y-98496206D01*
X129767991Y-98621894D01*
X129854542Y-98665994D01*
X129958516Y-98718972D01*
X129958519Y-98718973D01*
X130060200Y-98752010D01*
X130161884Y-98785049D01*
X130373084Y-98818500D01*
X130373085Y-98818500D01*
X130586915Y-98818500D01*
X130586916Y-98818500D01*
X130798116Y-98785049D01*
X131001483Y-98718972D01*
X131192009Y-98621894D01*
X131365004Y-98496206D01*
X131516206Y-98345004D01*
X131641894Y-98172009D01*
X131641896Y-98172004D01*
X131644270Y-98168132D01*
X131696080Y-98121254D01*
X131765009Y-98109829D01*
X131829173Y-98137483D01*
X131855730Y-98168132D01*
X131858103Y-98172005D01*
X131858105Y-98172008D01*
X131858106Y-98172009D01*
X131983794Y-98345004D01*
X132134996Y-98496206D01*
X132307991Y-98621894D01*
X132394542Y-98665994D01*
X132498516Y-98718972D01*
X132498519Y-98718973D01*
X132600200Y-98752010D01*
X132701884Y-98785049D01*
X132913084Y-98818500D01*
X132913085Y-98818500D01*
X133126915Y-98818500D01*
X133126916Y-98818500D01*
X133338116Y-98785049D01*
X133541483Y-98718972D01*
X133732009Y-98621894D01*
X133905004Y-98496206D01*
X134056206Y-98345004D01*
X134181894Y-98172009D01*
X134181896Y-98172004D01*
X134184270Y-98168132D01*
X134236080Y-98121254D01*
X134305009Y-98109829D01*
X134369173Y-98137483D01*
X134395730Y-98168132D01*
X134398103Y-98172005D01*
X134398105Y-98172008D01*
X134398106Y-98172009D01*
X134523794Y-98345004D01*
X134674996Y-98496206D01*
X134847991Y-98621894D01*
X134934542Y-98665994D01*
X135038516Y-98718972D01*
X135038519Y-98718973D01*
X135140200Y-98752010D01*
X135241884Y-98785049D01*
X135453084Y-98818500D01*
X135453085Y-98818500D01*
X135666915Y-98818500D01*
X135666916Y-98818500D01*
X135878116Y-98785049D01*
X136081483Y-98718972D01*
X136272009Y-98621894D01*
X136445004Y-98496206D01*
X136596206Y-98345004D01*
X136721894Y-98172009D01*
X136721896Y-98172004D01*
X136724270Y-98168132D01*
X136776080Y-98121254D01*
X136845009Y-98109829D01*
X136909173Y-98137483D01*
X136935730Y-98168132D01*
X136938103Y-98172005D01*
X136938105Y-98172008D01*
X136938106Y-98172009D01*
X137063794Y-98345004D01*
X137214996Y-98496206D01*
X137387991Y-98621894D01*
X137474542Y-98665994D01*
X137578516Y-98718972D01*
X137578519Y-98718973D01*
X137680200Y-98752010D01*
X137781884Y-98785049D01*
X137993084Y-98818500D01*
X137993085Y-98818500D01*
X138206915Y-98818500D01*
X138206916Y-98818500D01*
X138418116Y-98785049D01*
X138621483Y-98718972D01*
X138812009Y-98621894D01*
X138985004Y-98496206D01*
X139136206Y-98345004D01*
X139261894Y-98172009D01*
X139264283Y-98167319D01*
X139312254Y-98116522D01*
X139380074Y-98099724D01*
X139446210Y-98122258D01*
X139482201Y-98163788D01*
X139482832Y-98163402D01*
X139485164Y-98167207D01*
X139485251Y-98167308D01*
X139485376Y-98167554D01*
X139610272Y-98339459D01*
X139610276Y-98339464D01*
X139760535Y-98489723D01*
X139760540Y-98489727D01*
X139932442Y-98614620D01*
X140121782Y-98711095D01*
X140323871Y-98776757D01*
X140390000Y-98787231D01*
X140390000Y-97893012D01*
X140447007Y-97925925D01*
X140574174Y-97960000D01*
X140705826Y-97960000D01*
X140832993Y-97925925D01*
X140890000Y-97893012D01*
X140890000Y-98787230D01*
X140956126Y-98776757D01*
X140956129Y-98776757D01*
X141158217Y-98711095D01*
X141347557Y-98614620D01*
X141519459Y-98489727D01*
X141519464Y-98489723D01*
X141669723Y-98339464D01*
X141669727Y-98339459D01*
X141794620Y-98167558D01*
X141799514Y-98157954D01*
X141847488Y-98107157D01*
X141915308Y-98090361D01*
X141981444Y-98112897D01*
X142020486Y-98157954D01*
X142025379Y-98167558D01*
X142150272Y-98339459D01*
X142150276Y-98339464D01*
X142300535Y-98489723D01*
X142300540Y-98489727D01*
X142472442Y-98614620D01*
X142661782Y-98711095D01*
X142863871Y-98776757D01*
X142930000Y-98787231D01*
X142930000Y-97893012D01*
X142987007Y-97925925D01*
X143114174Y-97960000D01*
X143245826Y-97960000D01*
X143372993Y-97925925D01*
X143430000Y-97893012D01*
X143430000Y-98787230D01*
X143496126Y-98776757D01*
X143496129Y-98776757D01*
X143698217Y-98711095D01*
X143887557Y-98614620D01*
X144059459Y-98489727D01*
X144059464Y-98489723D01*
X144209723Y-98339464D01*
X144209727Y-98339459D01*
X144334619Y-98167560D01*
X144334738Y-98167327D01*
X144334808Y-98167252D01*
X144337168Y-98163402D01*
X144337976Y-98163897D01*
X144382707Y-98116526D01*
X144450526Y-98099723D01*
X144516663Y-98122254D01*
X144555712Y-98167311D01*
X144558105Y-98172008D01*
X144600002Y-98229674D01*
X144683794Y-98345004D01*
X144834996Y-98496206D01*
X145007991Y-98621894D01*
X145094542Y-98665994D01*
X145198516Y-98718972D01*
X145198519Y-98718973D01*
X145300200Y-98752010D01*
X145401884Y-98785049D01*
X145613084Y-98818500D01*
X145613085Y-98818500D01*
X145826915Y-98818500D01*
X145826916Y-98818500D01*
X146038116Y-98785049D01*
X146241483Y-98718972D01*
X146432009Y-98621894D01*
X146605004Y-98496206D01*
X146756206Y-98345004D01*
X146881894Y-98172009D01*
X146978972Y-97981483D01*
X147045049Y-97778116D01*
X147078500Y-97566916D01*
X147078500Y-97353084D01*
X147045049Y-97141884D01*
X146978972Y-96938517D01*
X146978972Y-96938516D01*
X146931639Y-96845621D01*
X146881894Y-96747991D01*
X146756206Y-96574996D01*
X146742555Y-96561345D01*
X149441500Y-96561345D01*
X149441500Y-98358654D01*
X149448011Y-98419202D01*
X149448011Y-98419204D01*
X149479138Y-98502656D01*
X149499111Y-98556204D01*
X149586739Y-98673261D01*
X149703796Y-98760889D01*
X149840799Y-98811989D01*
X149868050Y-98814918D01*
X149901345Y-98818499D01*
X149901362Y-98818500D01*
X151698638Y-98818500D01*
X151698654Y-98818499D01*
X151725692Y-98815591D01*
X151759201Y-98811989D01*
X151896204Y-98760889D01*
X152013261Y-98673261D01*
X152100889Y-98556204D01*
X152145957Y-98435371D01*
X152187827Y-98379442D01*
X152253291Y-98355025D01*
X152321564Y-98369877D01*
X152349818Y-98391028D01*
X152454996Y-98496206D01*
X152627991Y-98621894D01*
X152714542Y-98665994D01*
X152818516Y-98718972D01*
X152818519Y-98718973D01*
X152920200Y-98752010D01*
X153021884Y-98785049D01*
X153233084Y-98818500D01*
X153233085Y-98818500D01*
X153446915Y-98818500D01*
X153446916Y-98818500D01*
X153658116Y-98785049D01*
X153861483Y-98718972D01*
X154052009Y-98621894D01*
X154225004Y-98496206D01*
X154376206Y-98345004D01*
X154501894Y-98172009D01*
X154501896Y-98172004D01*
X154504270Y-98168132D01*
X154556080Y-98121254D01*
X154625009Y-98109829D01*
X154689173Y-98137483D01*
X154715730Y-98168132D01*
X154718103Y-98172005D01*
X154718105Y-98172008D01*
X154718106Y-98172009D01*
X154843794Y-98345004D01*
X154994996Y-98496206D01*
X155167991Y-98621894D01*
X155254542Y-98665994D01*
X155358516Y-98718972D01*
X155358519Y-98718973D01*
X155460200Y-98752010D01*
X155561884Y-98785049D01*
X155773084Y-98818500D01*
X155773085Y-98818500D01*
X155986915Y-98818500D01*
X155986916Y-98818500D01*
X156198116Y-98785049D01*
X156401483Y-98718972D01*
X156592009Y-98621894D01*
X156765004Y-98496206D01*
X156916206Y-98345004D01*
X157041894Y-98172009D01*
X157041896Y-98172004D01*
X157044270Y-98168132D01*
X157096080Y-98121254D01*
X157165009Y-98109829D01*
X157229173Y-98137483D01*
X157255730Y-98168132D01*
X157258103Y-98172005D01*
X157258105Y-98172008D01*
X157258106Y-98172009D01*
X157383794Y-98345004D01*
X157534996Y-98496206D01*
X157707991Y-98621894D01*
X157794542Y-98665994D01*
X157898516Y-98718972D01*
X157898519Y-98718973D01*
X158000200Y-98752010D01*
X158101884Y-98785049D01*
X158313084Y-98818500D01*
X158313085Y-98818500D01*
X158526915Y-98818500D01*
X158526916Y-98818500D01*
X158738116Y-98785049D01*
X158941483Y-98718972D01*
X159132009Y-98621894D01*
X159305004Y-98496206D01*
X159456206Y-98345004D01*
X159581894Y-98172009D01*
X159581896Y-98172004D01*
X159584270Y-98168132D01*
X159636080Y-98121254D01*
X159705009Y-98109829D01*
X159769173Y-98137483D01*
X159795730Y-98168132D01*
X159798103Y-98172005D01*
X159798105Y-98172008D01*
X159798106Y-98172009D01*
X159923794Y-98345004D01*
X160074996Y-98496206D01*
X160247991Y-98621894D01*
X160334542Y-98665994D01*
X160438516Y-98718972D01*
X160438519Y-98718973D01*
X160540200Y-98752010D01*
X160641884Y-98785049D01*
X160853084Y-98818500D01*
X160853085Y-98818500D01*
X161066915Y-98818500D01*
X161066916Y-98818500D01*
X161278116Y-98785049D01*
X161481483Y-98718972D01*
X161672009Y-98621894D01*
X161845004Y-98496206D01*
X161996206Y-98345004D01*
X162121894Y-98172009D01*
X162121896Y-98172004D01*
X162124270Y-98168132D01*
X162176080Y-98121254D01*
X162245009Y-98109829D01*
X162309173Y-98137483D01*
X162335730Y-98168132D01*
X162338103Y-98172005D01*
X162338105Y-98172008D01*
X162338106Y-98172009D01*
X162463794Y-98345004D01*
X162614996Y-98496206D01*
X162787991Y-98621894D01*
X162874542Y-98665994D01*
X162978516Y-98718972D01*
X162978519Y-98718973D01*
X163080200Y-98752010D01*
X163181884Y-98785049D01*
X163393084Y-98818500D01*
X163393085Y-98818500D01*
X163606915Y-98818500D01*
X163606916Y-98818500D01*
X163818116Y-98785049D01*
X164021483Y-98718972D01*
X164212009Y-98621894D01*
X164385004Y-98496206D01*
X164536206Y-98345004D01*
X164661894Y-98172009D01*
X164758972Y-97981483D01*
X164825049Y-97778116D01*
X164858500Y-97566916D01*
X164858500Y-97353084D01*
X164825049Y-97141884D01*
X164758972Y-96938517D01*
X164758972Y-96938516D01*
X164703495Y-96829638D01*
X164661894Y-96747991D01*
X164536206Y-96574996D01*
X164385004Y-96423794D01*
X164212009Y-96298106D01*
X164021483Y-96201027D01*
X164021480Y-96201026D01*
X163818117Y-96134951D01*
X163712516Y-96118225D01*
X163606916Y-96101500D01*
X163393084Y-96101500D01*
X163322684Y-96112650D01*
X163181882Y-96134951D01*
X162978519Y-96201026D01*
X162978516Y-96201027D01*
X162787990Y-96298106D01*
X162614993Y-96423796D01*
X162463796Y-96574993D01*
X162338105Y-96747991D01*
X162335727Y-96751873D01*
X162283914Y-96798748D01*
X162214984Y-96810169D01*
X162150822Y-96782512D01*
X162124273Y-96751873D01*
X162121894Y-96747991D01*
X162121891Y-96747987D01*
X161996206Y-96574996D01*
X161845004Y-96423794D01*
X161672009Y-96298106D01*
X161481483Y-96201027D01*
X161481480Y-96201026D01*
X161278117Y-96134951D01*
X161172516Y-96118225D01*
X161066916Y-96101500D01*
X160853084Y-96101500D01*
X160782684Y-96112650D01*
X160641882Y-96134951D01*
X160438519Y-96201026D01*
X160438516Y-96201027D01*
X160247990Y-96298106D01*
X160074993Y-96423796D01*
X159923796Y-96574993D01*
X159798105Y-96747991D01*
X159795727Y-96751873D01*
X159743914Y-96798748D01*
X159674984Y-96810169D01*
X159610822Y-96782512D01*
X159584273Y-96751873D01*
X159581894Y-96747991D01*
X159581891Y-96747987D01*
X159456206Y-96574996D01*
X159305004Y-96423794D01*
X159132009Y-96298106D01*
X158941483Y-96201027D01*
X158941480Y-96201026D01*
X158738117Y-96134951D01*
X158632516Y-96118225D01*
X158526916Y-96101500D01*
X158313084Y-96101500D01*
X158242684Y-96112650D01*
X158101882Y-96134951D01*
X157898519Y-96201026D01*
X157898516Y-96201027D01*
X157707990Y-96298106D01*
X157534993Y-96423796D01*
X157383796Y-96574993D01*
X157258105Y-96747991D01*
X157255727Y-96751873D01*
X157203914Y-96798748D01*
X157134984Y-96810169D01*
X157070822Y-96782512D01*
X157044273Y-96751873D01*
X157041894Y-96747991D01*
X157041891Y-96747987D01*
X156916206Y-96574996D01*
X156765004Y-96423794D01*
X156592009Y-96298106D01*
X156401483Y-96201027D01*
X156401480Y-96201026D01*
X156198117Y-96134951D01*
X156092516Y-96118225D01*
X155986916Y-96101500D01*
X155773084Y-96101500D01*
X155702684Y-96112650D01*
X155561882Y-96134951D01*
X155358519Y-96201026D01*
X155358516Y-96201027D01*
X155167990Y-96298106D01*
X154994993Y-96423796D01*
X154843796Y-96574993D01*
X154718105Y-96747991D01*
X154715727Y-96751873D01*
X154663914Y-96798748D01*
X154594984Y-96810169D01*
X154530822Y-96782512D01*
X154504273Y-96751873D01*
X154501894Y-96747991D01*
X154501891Y-96747987D01*
X154376206Y-96574996D01*
X154225004Y-96423794D01*
X154052009Y-96298106D01*
X153861483Y-96201027D01*
X153861480Y-96201026D01*
X153658117Y-96134951D01*
X153552516Y-96118225D01*
X153446916Y-96101500D01*
X153233084Y-96101500D01*
X153162684Y-96112650D01*
X153021882Y-96134951D01*
X152818519Y-96201026D01*
X152818516Y-96201027D01*
X152627990Y-96298106D01*
X152454997Y-96423793D01*
X152349818Y-96528972D01*
X152288495Y-96562456D01*
X152218803Y-96557472D01*
X152162870Y-96515600D01*
X152145958Y-96484629D01*
X152100889Y-96363796D01*
X152013261Y-96246739D01*
X151896204Y-96159111D01*
X151895172Y-96158726D01*
X151759203Y-96108011D01*
X151698654Y-96101500D01*
X151698638Y-96101500D01*
X149901362Y-96101500D01*
X149901345Y-96101500D01*
X149840797Y-96108011D01*
X149840795Y-96108011D01*
X149703795Y-96159111D01*
X149586739Y-96246739D01*
X149499111Y-96363795D01*
X149448011Y-96500795D01*
X149448011Y-96500797D01*
X149441500Y-96561345D01*
X146742555Y-96561345D01*
X146605004Y-96423794D01*
X146432009Y-96298106D01*
X146241483Y-96201027D01*
X146241480Y-96201026D01*
X146038117Y-96134951D01*
X145932516Y-96118225D01*
X145826916Y-96101500D01*
X145613084Y-96101500D01*
X145542684Y-96112650D01*
X145401882Y-96134951D01*
X145198519Y-96201026D01*
X145198516Y-96201027D01*
X145007990Y-96298106D01*
X144834993Y-96423796D01*
X144683796Y-96574993D01*
X144558103Y-96747994D01*
X144555709Y-96752693D01*
X144507731Y-96803485D01*
X144439908Y-96820275D01*
X144373775Y-96797732D01*
X144337800Y-96756210D01*
X144337168Y-96756598D01*
X144334829Y-96752781D01*
X144334743Y-96752682D01*
X144334620Y-96752441D01*
X144209727Y-96580540D01*
X144209723Y-96580535D01*
X144059464Y-96430276D01*
X144059459Y-96430272D01*
X143887557Y-96305379D01*
X143698215Y-96208903D01*
X143496124Y-96143241D01*
X143430000Y-96132768D01*
X143430000Y-97026988D01*
X143372993Y-96994075D01*
X143245826Y-96960000D01*
X143114174Y-96960000D01*
X142987007Y-96994075D01*
X142930000Y-97026988D01*
X142930000Y-96132768D01*
X142929999Y-96132768D01*
X142863875Y-96143241D01*
X142661784Y-96208903D01*
X142472442Y-96305379D01*
X142300540Y-96430272D01*
X142300535Y-96430276D01*
X142150276Y-96580535D01*
X142150272Y-96580540D01*
X142025377Y-96752444D01*
X142020484Y-96762048D01*
X141972509Y-96812844D01*
X141904688Y-96829638D01*
X141838553Y-96807100D01*
X141799516Y-96762048D01*
X141794622Y-96752444D01*
X141669727Y-96580540D01*
X141669723Y-96580535D01*
X141519464Y-96430276D01*
X141519459Y-96430272D01*
X141347557Y-96305379D01*
X141158215Y-96208903D01*
X140956124Y-96143241D01*
X140890000Y-96132768D01*
X140890000Y-97026988D01*
X140832993Y-96994075D01*
X140705826Y-96960000D01*
X140574174Y-96960000D01*
X140447007Y-96994075D01*
X140390000Y-97026988D01*
X140390000Y-96132768D01*
X140389999Y-96132768D01*
X140323875Y-96143241D01*
X140121784Y-96208903D01*
X139932442Y-96305379D01*
X139760540Y-96430272D01*
X139760535Y-96430276D01*
X139610276Y-96580535D01*
X139610272Y-96580540D01*
X139485376Y-96752446D01*
X139485374Y-96752448D01*
X139485246Y-96752701D01*
X139485172Y-96752779D01*
X139482832Y-96756598D01*
X139482029Y-96756106D01*
X139437264Y-96803489D01*
X139369441Y-96820274D01*
X139303309Y-96797727D01*
X139264285Y-96752683D01*
X139261895Y-96747992D01*
X139230472Y-96704742D01*
X139136206Y-96574996D01*
X138985004Y-96423794D01*
X138812009Y-96298106D01*
X138621483Y-96201027D01*
X138621480Y-96201026D01*
X138418117Y-96134951D01*
X138312516Y-96118225D01*
X138206916Y-96101500D01*
X137993084Y-96101500D01*
X137922684Y-96112650D01*
X137781882Y-96134951D01*
X137578519Y-96201026D01*
X137578516Y-96201027D01*
X137387990Y-96298106D01*
X137214993Y-96423796D01*
X137063796Y-96574993D01*
X136938105Y-96747991D01*
X136935727Y-96751873D01*
X136883914Y-96798748D01*
X136814984Y-96810169D01*
X136750822Y-96782512D01*
X136724273Y-96751873D01*
X136721894Y-96747991D01*
X136721891Y-96747987D01*
X136596206Y-96574996D01*
X136445004Y-96423794D01*
X136272009Y-96298106D01*
X136081483Y-96201027D01*
X136081480Y-96201026D01*
X135878117Y-96134951D01*
X135772516Y-96118225D01*
X135666916Y-96101500D01*
X135453084Y-96101500D01*
X135382684Y-96112650D01*
X135241882Y-96134951D01*
X135038519Y-96201026D01*
X135038516Y-96201027D01*
X134847990Y-96298106D01*
X134674993Y-96423796D01*
X134523796Y-96574993D01*
X134398105Y-96747991D01*
X134395727Y-96751873D01*
X134343914Y-96798748D01*
X134274984Y-96810169D01*
X134210822Y-96782512D01*
X134184273Y-96751873D01*
X134181894Y-96747991D01*
X134181891Y-96747987D01*
X134056206Y-96574996D01*
X133905004Y-96423794D01*
X133732009Y-96298106D01*
X133541483Y-96201027D01*
X133541480Y-96201026D01*
X133338117Y-96134951D01*
X133232516Y-96118225D01*
X133126916Y-96101500D01*
X132913084Y-96101500D01*
X132842684Y-96112650D01*
X132701882Y-96134951D01*
X132498519Y-96201026D01*
X132498516Y-96201027D01*
X132307990Y-96298106D01*
X132134993Y-96423796D01*
X131983796Y-96574993D01*
X131858105Y-96747991D01*
X131855727Y-96751873D01*
X131803914Y-96798748D01*
X131734984Y-96810169D01*
X131670822Y-96782512D01*
X131644273Y-96751873D01*
X131641894Y-96747991D01*
X131641891Y-96747987D01*
X131516206Y-96574996D01*
X131365004Y-96423794D01*
X131192009Y-96298106D01*
X131001483Y-96201027D01*
X131001480Y-96201026D01*
X130798117Y-96134951D01*
X130692516Y-96118225D01*
X130586916Y-96101500D01*
X130373084Y-96101500D01*
X130302684Y-96112650D01*
X130161882Y-96134951D01*
X129958519Y-96201026D01*
X129958516Y-96201027D01*
X129767990Y-96298106D01*
X129594997Y-96423793D01*
X129489818Y-96528972D01*
X129428495Y-96562456D01*
X129358803Y-96557472D01*
X129302870Y-96515600D01*
X129285958Y-96484629D01*
X129240889Y-96363796D01*
X129153261Y-96246739D01*
X129036204Y-96159111D01*
X129035172Y-96158726D01*
X128899203Y-96108011D01*
X128838654Y-96101500D01*
X128838638Y-96101500D01*
X127041362Y-96101500D01*
X127041345Y-96101500D01*
X126980797Y-96108011D01*
X126980795Y-96108011D01*
X126843795Y-96159111D01*
X126726739Y-96246739D01*
X126639111Y-96363795D01*
X126588011Y-96500795D01*
X126588011Y-96500797D01*
X126581500Y-96561345D01*
X115295416Y-96561345D01*
X115292602Y-96557472D01*
X115190798Y-96417350D01*
X115190794Y-96417345D01*
X115012654Y-96239205D01*
X115012649Y-96239201D01*
X114808848Y-96091132D01*
X114808847Y-96091131D01*
X114808845Y-96091130D01*
X114738747Y-96055413D01*
X114584383Y-95976760D01*
X114344785Y-95898910D01*
X114095962Y-95859500D01*
X113844038Y-95859500D01*
X113719626Y-95879205D01*
X113595214Y-95898910D01*
X113355616Y-95976760D01*
X113131151Y-96091132D01*
X112927350Y-96239201D01*
X112927345Y-96239205D01*
X112749205Y-96417345D01*
X112749201Y-96417350D01*
X112601132Y-96621151D01*
X112486760Y-96845616D01*
X112408910Y-97085214D01*
X112369500Y-97334038D01*
X100075500Y-97334038D01*
X100075500Y-91681947D01*
X122500000Y-91681947D01*
X122500000Y-91918052D01*
X122536934Y-92151247D01*
X122609897Y-92375802D01*
X122717087Y-92586174D01*
X122777338Y-92669104D01*
X122777340Y-92669105D01*
X123517037Y-91929408D01*
X123534075Y-91992993D01*
X123599901Y-92107007D01*
X123692993Y-92200099D01*
X123807007Y-92265925D01*
X123870590Y-92282962D01*
X123130893Y-93022658D01*
X123213828Y-93082914D01*
X123424197Y-93190102D01*
X123648752Y-93263065D01*
X123648751Y-93263065D01*
X123881948Y-93300000D01*
X124118052Y-93300000D01*
X124351247Y-93263065D01*
X124575802Y-93190102D01*
X124786163Y-93082918D01*
X124786169Y-93082914D01*
X124869104Y-93022658D01*
X124869105Y-93022658D01*
X124129408Y-92282962D01*
X124192993Y-92265925D01*
X124307007Y-92200099D01*
X124400099Y-92107007D01*
X124465925Y-91992993D01*
X124482962Y-91929408D01*
X125222658Y-92669105D01*
X125222658Y-92669104D01*
X125282914Y-92586169D01*
X125282918Y-92586163D01*
X125390102Y-92375802D01*
X125429666Y-92254038D01*
X164439500Y-92254038D01*
X164439500Y-92505962D01*
X164465339Y-92669104D01*
X164478910Y-92754785D01*
X164556760Y-92994383D01*
X164671132Y-93218848D01*
X164819201Y-93422649D01*
X164819205Y-93422654D01*
X164997345Y-93600794D01*
X164997350Y-93600798D01*
X165175117Y-93729952D01*
X165201155Y-93748870D01*
X165344184Y-93821747D01*
X165425616Y-93863239D01*
X165425618Y-93863239D01*
X165425621Y-93863241D01*
X165665215Y-93941090D01*
X165914038Y-93980500D01*
X165914039Y-93980500D01*
X166165961Y-93980500D01*
X166165962Y-93980500D01*
X166414785Y-93941090D01*
X166654379Y-93863241D01*
X166878845Y-93748870D01*
X167082656Y-93600793D01*
X167260793Y-93422656D01*
X167408870Y-93218845D01*
X167523241Y-92994379D01*
X167601090Y-92754785D01*
X167640500Y-92505962D01*
X167640500Y-92254038D01*
X167601090Y-92005215D01*
X167523241Y-91765621D01*
X167523239Y-91765618D01*
X167523239Y-91765616D01*
X167442423Y-91607007D01*
X167408870Y-91541155D01*
X167373878Y-91492993D01*
X167260798Y-91337350D01*
X167260794Y-91337345D01*
X167082654Y-91159205D01*
X167082649Y-91159201D01*
X166878848Y-91011132D01*
X166878847Y-91011131D01*
X166878845Y-91011130D01*
X166808747Y-90975413D01*
X166654383Y-90896760D01*
X166414785Y-90818910D01*
X166165962Y-90779500D01*
X165914038Y-90779500D01*
X165789626Y-90799205D01*
X165665214Y-90818910D01*
X165425616Y-90896760D01*
X165201151Y-91011132D01*
X164997350Y-91159201D01*
X164997345Y-91159205D01*
X164819205Y-91337345D01*
X164819201Y-91337350D01*
X164671132Y-91541151D01*
X164556760Y-91765616D01*
X164524200Y-91865826D01*
X164478910Y-92005215D01*
X164439500Y-92254038D01*
X125429666Y-92254038D01*
X125443700Y-92210848D01*
X125443700Y-92210847D01*
X125463065Y-92151245D01*
X125500000Y-91918052D01*
X125500000Y-91681947D01*
X125463065Y-91448752D01*
X125390102Y-91224197D01*
X125282914Y-91013828D01*
X125222658Y-90930894D01*
X125222658Y-90930893D01*
X124482962Y-91670590D01*
X124465925Y-91607007D01*
X124400099Y-91492993D01*
X124307007Y-91399901D01*
X124192993Y-91334075D01*
X124129409Y-91317037D01*
X124869105Y-90577340D01*
X124869104Y-90577338D01*
X124786174Y-90517087D01*
X124575802Y-90409897D01*
X124351247Y-90336934D01*
X124351248Y-90336934D01*
X124118052Y-90300000D01*
X123881948Y-90300000D01*
X123648752Y-90336934D01*
X123424197Y-90409897D01*
X123213830Y-90517084D01*
X123130894Y-90577340D01*
X123870591Y-91317037D01*
X123807007Y-91334075D01*
X123692993Y-91399901D01*
X123599901Y-91492993D01*
X123534075Y-91607007D01*
X123517037Y-91670590D01*
X122777340Y-90930894D01*
X122717084Y-91013830D01*
X122609897Y-91224197D01*
X122536934Y-91448752D01*
X122500000Y-91681947D01*
X100075500Y-91681947D01*
X100075500Y-87552155D01*
X133100000Y-87552155D01*
X133100000Y-88250000D01*
X134124722Y-88250000D01*
X134080667Y-88326306D01*
X134050000Y-88440756D01*
X134050000Y-88559244D01*
X134080667Y-88673694D01*
X134124722Y-88750000D01*
X133100000Y-88750000D01*
X133100000Y-89447844D01*
X133106401Y-89507372D01*
X133106403Y-89507379D01*
X133156645Y-89642086D01*
X133156649Y-89642093D01*
X133242809Y-89757187D01*
X133242812Y-89757190D01*
X133357906Y-89843350D01*
X133357913Y-89843354D01*
X133492620Y-89893596D01*
X133492627Y-89893598D01*
X133552155Y-89899999D01*
X133552172Y-89900000D01*
X134250000Y-89900000D01*
X134250000Y-88875277D01*
X134326306Y-88919333D01*
X134440756Y-88950000D01*
X134559244Y-88950000D01*
X134673694Y-88919333D01*
X134750000Y-88875277D01*
X134750000Y-89900000D01*
X135447828Y-89900000D01*
X135447844Y-89899999D01*
X135507372Y-89893598D01*
X135507379Y-89893596D01*
X135642086Y-89843354D01*
X135642093Y-89843350D01*
X135757187Y-89757190D01*
X135757190Y-89757187D01*
X135843350Y-89642093D01*
X135843354Y-89642086D01*
X135870140Y-89570270D01*
X135912011Y-89514336D01*
X135977475Y-89489919D01*
X136045748Y-89504770D01*
X136074003Y-89525922D01*
X136122424Y-89574343D01*
X136301785Y-89704657D01*
X136395114Y-89752210D01*
X136499319Y-89805306D01*
X136499321Y-89805306D01*
X136499324Y-89805308D01*
X136710176Y-89873818D01*
X136929149Y-89908500D01*
X136929150Y-89908500D01*
X137150850Y-89908500D01*
X137150851Y-89908500D01*
X137369824Y-89873818D01*
X137580676Y-89805308D01*
X137778215Y-89704657D01*
X137957576Y-89574343D01*
X138114343Y-89417576D01*
X138244657Y-89238215D01*
X138345308Y-89040676D01*
X138413818Y-88829824D01*
X138448500Y-88610851D01*
X138448500Y-88389149D01*
X138413818Y-88170176D01*
X138345308Y-87959324D01*
X138345306Y-87959321D01*
X138345306Y-87959319D01*
X138244656Y-87761784D01*
X138114343Y-87582424D01*
X137957576Y-87425657D01*
X137778215Y-87295343D01*
X137580680Y-87194693D01*
X137369824Y-87126182D01*
X137150851Y-87091500D01*
X136929149Y-87091500D01*
X136819662Y-87108841D01*
X136710175Y-87126182D01*
X136499319Y-87194693D01*
X136301784Y-87295343D01*
X136215675Y-87357906D01*
X136122424Y-87425657D01*
X136122422Y-87425659D01*
X136122420Y-87425660D01*
X136074002Y-87474078D01*
X136012679Y-87507562D01*
X135942987Y-87502577D01*
X135887054Y-87460705D01*
X135870140Y-87429729D01*
X135843354Y-87357913D01*
X135843350Y-87357906D01*
X135757190Y-87242812D01*
X135757187Y-87242809D01*
X135642093Y-87156649D01*
X135642086Y-87156645D01*
X135507379Y-87106403D01*
X135507372Y-87106401D01*
X135447844Y-87100000D01*
X134750000Y-87100000D01*
X134750000Y-88124722D01*
X134673694Y-88080667D01*
X134559244Y-88050000D01*
X134440756Y-88050000D01*
X134326306Y-88080667D01*
X134250000Y-88124722D01*
X134250000Y-87100000D01*
X133552155Y-87100000D01*
X133492627Y-87106401D01*
X133492620Y-87106403D01*
X133357913Y-87156645D01*
X133357906Y-87156649D01*
X133242812Y-87242809D01*
X133242809Y-87242812D01*
X133156649Y-87357906D01*
X133156645Y-87357913D01*
X133106403Y-87492620D01*
X133106401Y-87492627D01*
X133100000Y-87552155D01*
X100075500Y-87552155D01*
X100075500Y-83151345D01*
X122491500Y-83151345D01*
X122491500Y-85248654D01*
X122498011Y-85309202D01*
X122498011Y-85309204D01*
X122549111Y-85446204D01*
X122636739Y-85563261D01*
X122753796Y-85650889D01*
X122890799Y-85701989D01*
X122918050Y-85704918D01*
X122951345Y-85708499D01*
X122951362Y-85708500D01*
X125048638Y-85708500D01*
X125048654Y-85708499D01*
X125075692Y-85705591D01*
X125109201Y-85701989D01*
X125246204Y-85650889D01*
X125363261Y-85563261D01*
X125450889Y-85446204D01*
X125501989Y-85309201D01*
X125505591Y-85275692D01*
X125508499Y-85248654D01*
X125508500Y-85248637D01*
X125508500Y-83151362D01*
X125508499Y-83151345D01*
X125505157Y-83120270D01*
X125501989Y-83090799D01*
X125450889Y-82953796D01*
X125363261Y-82836739D01*
X125246204Y-82749111D01*
X125109203Y-82698011D01*
X125048654Y-82691500D01*
X125048638Y-82691500D01*
X122951362Y-82691500D01*
X122951345Y-82691500D01*
X122890797Y-82698011D01*
X122890795Y-82698011D01*
X122753795Y-82749111D01*
X122636739Y-82836739D01*
X122549111Y-82953795D01*
X122498011Y-83090795D01*
X122498011Y-83090797D01*
X122491500Y-83151345D01*
X100075500Y-83151345D01*
X100075500Y-76131947D01*
X107250000Y-76131947D01*
X107250000Y-76368052D01*
X107286934Y-76601247D01*
X107359897Y-76825802D01*
X107467087Y-77036174D01*
X107527338Y-77119104D01*
X107527340Y-77119105D01*
X108226212Y-76420233D01*
X108237482Y-76462292D01*
X108309890Y-76587708D01*
X108412292Y-76690110D01*
X108537708Y-76762518D01*
X108579765Y-76773787D01*
X107880893Y-77472658D01*
X107963828Y-77532914D01*
X108174197Y-77640102D01*
X108398752Y-77713065D01*
X108398751Y-77713065D01*
X108631948Y-77750000D01*
X108868052Y-77750000D01*
X109101247Y-77713065D01*
X109325802Y-77640102D01*
X109536163Y-77532918D01*
X109536169Y-77532914D01*
X109619104Y-77472658D01*
X109619105Y-77472658D01*
X108920233Y-76773787D01*
X108962292Y-76762518D01*
X109087708Y-76690110D01*
X109190110Y-76587708D01*
X109262518Y-76462292D01*
X109273787Y-76420234D01*
X109972658Y-77119105D01*
X109972658Y-77119104D01*
X110032914Y-77036169D01*
X110032918Y-77036163D01*
X110140102Y-76825802D01*
X110213065Y-76601247D01*
X110250000Y-76368052D01*
X110250000Y-76131947D01*
X113750000Y-76131947D01*
X113750000Y-76368052D01*
X113786934Y-76601247D01*
X113859897Y-76825802D01*
X113967087Y-77036174D01*
X114027338Y-77119104D01*
X114027340Y-77119105D01*
X114726212Y-76420233D01*
X114737482Y-76462292D01*
X114809890Y-76587708D01*
X114912292Y-76690110D01*
X115037708Y-76762518D01*
X115079765Y-76773787D01*
X114380893Y-77472658D01*
X114463828Y-77532914D01*
X114674197Y-77640102D01*
X114898752Y-77713065D01*
X114898751Y-77713065D01*
X115131948Y-77750000D01*
X115368052Y-77750000D01*
X115601247Y-77713065D01*
X115825802Y-77640102D01*
X115998408Y-77552155D01*
X133060000Y-77552155D01*
X133060000Y-78250000D01*
X134084722Y-78250000D01*
X134040667Y-78326306D01*
X134010000Y-78440756D01*
X134010000Y-78559244D01*
X134040667Y-78673694D01*
X134084722Y-78750000D01*
X133060000Y-78750000D01*
X133060000Y-79447844D01*
X133066401Y-79507372D01*
X133066403Y-79507379D01*
X133116645Y-79642086D01*
X133116649Y-79642093D01*
X133202809Y-79757187D01*
X133202812Y-79757190D01*
X133317906Y-79843350D01*
X133317913Y-79843354D01*
X133452620Y-79893596D01*
X133452627Y-79893598D01*
X133512155Y-79899999D01*
X133512172Y-79900000D01*
X134210000Y-79900000D01*
X134210000Y-78875277D01*
X134286306Y-78919333D01*
X134400756Y-78950000D01*
X134519244Y-78950000D01*
X134633694Y-78919333D01*
X134710000Y-78875277D01*
X134710000Y-79900000D01*
X135407828Y-79900000D01*
X135407844Y-79899999D01*
X135467372Y-79893598D01*
X135467379Y-79893596D01*
X135602086Y-79843354D01*
X135602093Y-79843350D01*
X135717187Y-79757190D01*
X135717190Y-79757187D01*
X135803350Y-79642093D01*
X135803354Y-79642086D01*
X135830140Y-79570270D01*
X135872011Y-79514336D01*
X135937475Y-79489919D01*
X136005748Y-79504770D01*
X136034003Y-79525922D01*
X136082424Y-79574343D01*
X136261785Y-79704657D01*
X136355114Y-79752210D01*
X136459319Y-79805306D01*
X136459321Y-79805306D01*
X136459324Y-79805308D01*
X136670176Y-79873818D01*
X136889149Y-79908500D01*
X136889150Y-79908500D01*
X137110850Y-79908500D01*
X137110851Y-79908500D01*
X137329824Y-79873818D01*
X137540676Y-79805308D01*
X137738215Y-79704657D01*
X137917576Y-79574343D01*
X138074343Y-79417576D01*
X138204657Y-79238215D01*
X138305308Y-79040676D01*
X138373818Y-78829824D01*
X138408500Y-78610851D01*
X138408500Y-78389149D01*
X138373818Y-78170176D01*
X138305308Y-77959324D01*
X138305306Y-77959321D01*
X138305306Y-77959319D01*
X138204656Y-77761784D01*
X138074343Y-77582424D01*
X137917576Y-77425657D01*
X137824325Y-77357906D01*
X137738213Y-77295341D01*
X137719651Y-77285884D01*
X137676870Y-77264086D01*
X137540680Y-77194693D01*
X137329824Y-77126182D01*
X137110851Y-77091500D01*
X136889149Y-77091500D01*
X136779662Y-77108841D01*
X136670175Y-77126182D01*
X136459319Y-77194693D01*
X136261784Y-77295343D01*
X136175675Y-77357906D01*
X136082424Y-77425657D01*
X136082422Y-77425659D01*
X136082420Y-77425660D01*
X136034002Y-77474078D01*
X135972679Y-77507562D01*
X135902987Y-77502577D01*
X135847054Y-77460705D01*
X135830140Y-77429729D01*
X135803354Y-77357913D01*
X135803350Y-77357906D01*
X135717190Y-77242812D01*
X135717187Y-77242809D01*
X135602093Y-77156649D01*
X135602086Y-77156645D01*
X135467379Y-77106403D01*
X135467372Y-77106401D01*
X135407844Y-77100000D01*
X134710000Y-77100000D01*
X134710000Y-78124722D01*
X134633694Y-78080667D01*
X134519244Y-78050000D01*
X134400756Y-78050000D01*
X134286306Y-78080667D01*
X134210000Y-78124722D01*
X134210000Y-77100000D01*
X133512155Y-77100000D01*
X133452627Y-77106401D01*
X133452620Y-77106403D01*
X133317913Y-77156645D01*
X133317906Y-77156649D01*
X133202812Y-77242809D01*
X133202809Y-77242812D01*
X133116649Y-77357906D01*
X133116645Y-77357913D01*
X133066403Y-77492620D01*
X133066401Y-77492627D01*
X133060000Y-77552155D01*
X115998408Y-77552155D01*
X116036163Y-77532918D01*
X116036169Y-77532914D01*
X116119104Y-77472658D01*
X116119105Y-77472658D01*
X115420233Y-76773787D01*
X115462292Y-76762518D01*
X115587708Y-76690110D01*
X115690110Y-76587708D01*
X115762518Y-76462292D01*
X115773787Y-76420233D01*
X116472658Y-77119105D01*
X116472658Y-77119104D01*
X116532914Y-77036169D01*
X116532918Y-77036163D01*
X116640102Y-76825802D01*
X116713065Y-76601247D01*
X116750000Y-76368052D01*
X116750000Y-76131947D01*
X116713066Y-75898756D01*
X116713065Y-75898752D01*
X116707605Y-75881947D01*
X152000000Y-75881947D01*
X152000000Y-76118052D01*
X152036934Y-76351247D01*
X152109897Y-76575802D01*
X152217087Y-76786174D01*
X152277338Y-76869104D01*
X152277340Y-76869105D01*
X152976212Y-76170233D01*
X152987482Y-76212292D01*
X153059890Y-76337708D01*
X153162292Y-76440110D01*
X153287708Y-76512518D01*
X153329765Y-76523787D01*
X152630893Y-77222658D01*
X152713828Y-77282914D01*
X152924197Y-77390102D01*
X153148752Y-77463065D01*
X153148751Y-77463065D01*
X153381948Y-77500000D01*
X153618052Y-77500000D01*
X153851247Y-77463065D01*
X154075802Y-77390102D01*
X154286163Y-77282918D01*
X154286169Y-77282914D01*
X154369104Y-77222658D01*
X154369105Y-77222658D01*
X153670233Y-76523787D01*
X153712292Y-76512518D01*
X153837708Y-76440110D01*
X153940110Y-76337708D01*
X154012518Y-76212292D01*
X154023787Y-76170234D01*
X154722658Y-76869105D01*
X154722658Y-76869104D01*
X154782914Y-76786169D01*
X154782918Y-76786163D01*
X154890102Y-76575802D01*
X154963065Y-76351247D01*
X155000000Y-76118052D01*
X155000000Y-75881947D01*
X158500000Y-75881947D01*
X158500000Y-76118052D01*
X158536934Y-76351247D01*
X158609897Y-76575802D01*
X158717087Y-76786174D01*
X158777338Y-76869104D01*
X158777340Y-76869105D01*
X159476212Y-76170233D01*
X159487482Y-76212292D01*
X159559890Y-76337708D01*
X159662292Y-76440110D01*
X159787708Y-76512518D01*
X159829765Y-76523787D01*
X159130893Y-77222658D01*
X159213828Y-77282914D01*
X159424197Y-77390102D01*
X159648752Y-77463065D01*
X159648751Y-77463065D01*
X159881948Y-77500000D01*
X160118052Y-77500000D01*
X160351247Y-77463065D01*
X160575802Y-77390102D01*
X160786163Y-77282918D01*
X160786169Y-77282914D01*
X160869104Y-77222658D01*
X160869105Y-77222658D01*
X160170233Y-76523787D01*
X160212292Y-76512518D01*
X160337708Y-76440110D01*
X160440110Y-76337708D01*
X160512518Y-76212292D01*
X160523787Y-76170233D01*
X161222658Y-76869105D01*
X161222658Y-76869104D01*
X161282914Y-76786169D01*
X161282918Y-76786163D01*
X161390102Y-76575802D01*
X161463065Y-76351247D01*
X161500000Y-76118052D01*
X161500000Y-75881947D01*
X161463065Y-75648752D01*
X161390102Y-75424197D01*
X161282914Y-75213828D01*
X161222658Y-75130894D01*
X161222658Y-75130893D01*
X160523787Y-75829765D01*
X160512518Y-75787708D01*
X160440110Y-75662292D01*
X160337708Y-75559890D01*
X160212292Y-75487482D01*
X160170234Y-75476212D01*
X160869105Y-74777340D01*
X160869104Y-74777338D01*
X160786174Y-74717087D01*
X160575802Y-74609897D01*
X160351247Y-74536934D01*
X160351248Y-74536934D01*
X160118052Y-74500000D01*
X159881948Y-74500000D01*
X159648752Y-74536934D01*
X159424197Y-74609897D01*
X159213830Y-74717084D01*
X159130894Y-74777340D01*
X159829766Y-75476212D01*
X159787708Y-75487482D01*
X159662292Y-75559890D01*
X159559890Y-75662292D01*
X159487482Y-75787708D01*
X159476212Y-75829766D01*
X158777340Y-75130894D01*
X158717084Y-75213830D01*
X158609897Y-75424197D01*
X158536934Y-75648752D01*
X158500000Y-75881947D01*
X155000000Y-75881947D01*
X154963065Y-75648752D01*
X154890102Y-75424197D01*
X154782914Y-75213828D01*
X154722658Y-75130894D01*
X154722658Y-75130893D01*
X154023787Y-75829765D01*
X154012518Y-75787708D01*
X153940110Y-75662292D01*
X153837708Y-75559890D01*
X153712292Y-75487482D01*
X153670234Y-75476212D01*
X154369105Y-74777340D01*
X154369104Y-74777339D01*
X154286174Y-74717087D01*
X154075802Y-74609897D01*
X153851247Y-74536934D01*
X153851248Y-74536934D01*
X153618052Y-74500000D01*
X153381948Y-74500000D01*
X153148752Y-74536934D01*
X152924197Y-74609897D01*
X152713830Y-74717084D01*
X152630894Y-74777340D01*
X153329766Y-75476212D01*
X153287708Y-75487482D01*
X153162292Y-75559890D01*
X153059890Y-75662292D01*
X152987482Y-75787708D01*
X152976212Y-75829766D01*
X152277340Y-75130894D01*
X152217084Y-75213830D01*
X152109897Y-75424197D01*
X152036934Y-75648752D01*
X152000000Y-75881947D01*
X116707605Y-75881947D01*
X116640102Y-75674197D01*
X116532914Y-75463828D01*
X116472658Y-75380894D01*
X116472658Y-75380893D01*
X115773787Y-76079765D01*
X115762518Y-76037708D01*
X115690110Y-75912292D01*
X115587708Y-75809890D01*
X115462292Y-75737482D01*
X115420234Y-75726212D01*
X116119105Y-75027340D01*
X116119104Y-75027338D01*
X116036174Y-74967087D01*
X115825802Y-74859897D01*
X115601247Y-74786934D01*
X115601248Y-74786934D01*
X115368052Y-74750000D01*
X115131948Y-74750000D01*
X114898752Y-74786934D01*
X114674197Y-74859897D01*
X114463830Y-74967084D01*
X114380894Y-75027340D01*
X115079766Y-75726212D01*
X115037708Y-75737482D01*
X114912292Y-75809890D01*
X114809890Y-75912292D01*
X114737482Y-76037708D01*
X114726212Y-76079766D01*
X114027340Y-75380894D01*
X113967084Y-75463830D01*
X113859897Y-75674197D01*
X113786934Y-75898752D01*
X113750000Y-76131947D01*
X110250000Y-76131947D01*
X110213065Y-75898752D01*
X110140102Y-75674197D01*
X110032914Y-75463828D01*
X109972658Y-75380894D01*
X109972658Y-75380893D01*
X109273787Y-76079765D01*
X109262518Y-76037708D01*
X109190110Y-75912292D01*
X109087708Y-75809890D01*
X108962292Y-75737482D01*
X108920234Y-75726212D01*
X109619105Y-75027340D01*
X109619104Y-75027339D01*
X109536174Y-74967087D01*
X109325802Y-74859897D01*
X109101247Y-74786934D01*
X109101248Y-74786934D01*
X108868052Y-74750000D01*
X108631948Y-74750000D01*
X108398752Y-74786934D01*
X108174197Y-74859897D01*
X107963830Y-74967084D01*
X107880894Y-75027340D01*
X108579766Y-75726212D01*
X108537708Y-75737482D01*
X108412292Y-75809890D01*
X108309890Y-75912292D01*
X108237482Y-76037708D01*
X108226212Y-76079766D01*
X107527340Y-75380894D01*
X107467084Y-75463830D01*
X107359897Y-75674197D01*
X107286934Y-75898752D01*
X107250000Y-76131947D01*
X100075500Y-76131947D01*
X100075500Y-71631272D01*
X107241500Y-71631272D01*
X107241500Y-71868727D01*
X107278643Y-72103241D01*
X107352019Y-72329067D01*
X107430311Y-72482722D01*
X107459815Y-72540627D01*
X107599380Y-72732722D01*
X107767278Y-72900620D01*
X107959373Y-73040185D01*
X107982866Y-73052155D01*
X108170932Y-73147980D01*
X108170934Y-73147980D01*
X108170937Y-73147982D01*
X108291984Y-73187312D01*
X108396758Y-73221356D01*
X108631273Y-73258500D01*
X108631278Y-73258500D01*
X108868727Y-73258500D01*
X109103241Y-73221356D01*
X109329063Y-73147982D01*
X109540627Y-73040185D01*
X109732722Y-72900620D01*
X109900620Y-72732722D01*
X110040185Y-72540627D01*
X110147982Y-72329063D01*
X110221356Y-72103241D01*
X110225185Y-72079063D01*
X110258500Y-71868727D01*
X110258500Y-71631272D01*
X113741500Y-71631272D01*
X113741500Y-71868727D01*
X113778643Y-72103241D01*
X113852019Y-72329067D01*
X113930311Y-72482722D01*
X113959815Y-72540627D01*
X114099380Y-72732722D01*
X114267278Y-72900620D01*
X114459373Y-73040185D01*
X114482866Y-73052155D01*
X114670932Y-73147980D01*
X114670934Y-73147980D01*
X114670937Y-73147982D01*
X114791984Y-73187312D01*
X114896758Y-73221356D01*
X115131273Y-73258500D01*
X115131278Y-73258500D01*
X115368727Y-73258500D01*
X115603241Y-73221356D01*
X115829063Y-73147982D01*
X116017134Y-73052155D01*
X118600000Y-73052155D01*
X118600000Y-73750000D01*
X119624722Y-73750000D01*
X119580667Y-73826306D01*
X119550000Y-73940756D01*
X119550000Y-74059244D01*
X119580667Y-74173694D01*
X119624722Y-74250000D01*
X118600000Y-74250000D01*
X118600000Y-74947844D01*
X118606401Y-75007372D01*
X118606403Y-75007379D01*
X118656645Y-75142086D01*
X118656649Y-75142093D01*
X118742809Y-75257187D01*
X118742812Y-75257190D01*
X118857906Y-75343350D01*
X118857913Y-75343354D01*
X118992620Y-75393596D01*
X118992627Y-75393598D01*
X119052155Y-75399999D01*
X119052172Y-75400000D01*
X119750000Y-75400000D01*
X119750000Y-74375277D01*
X119826306Y-74419333D01*
X119940756Y-74450000D01*
X120059244Y-74450000D01*
X120173694Y-74419333D01*
X120250000Y-74375277D01*
X120250000Y-75400000D01*
X120947828Y-75400000D01*
X120947844Y-75399999D01*
X121007372Y-75393598D01*
X121007379Y-75393596D01*
X121142086Y-75343354D01*
X121142093Y-75343350D01*
X121257187Y-75257190D01*
X121257190Y-75257187D01*
X121343350Y-75142093D01*
X121343354Y-75142086D01*
X121370140Y-75070270D01*
X121412011Y-75014336D01*
X121477475Y-74989919D01*
X121545748Y-75004770D01*
X121574003Y-75025922D01*
X121622424Y-75074343D01*
X121801785Y-75204657D01*
X121895114Y-75252210D01*
X121999319Y-75305306D01*
X121999321Y-75305306D01*
X121999324Y-75305308D01*
X122210176Y-75373818D01*
X122429149Y-75408500D01*
X122429150Y-75408500D01*
X122650850Y-75408500D01*
X122650851Y-75408500D01*
X122869824Y-75373818D01*
X123080676Y-75305308D01*
X123278215Y-75204657D01*
X123457576Y-75074343D01*
X123614343Y-74917576D01*
X123744657Y-74738215D01*
X123845308Y-74540676D01*
X123913818Y-74329824D01*
X123948500Y-74110851D01*
X123948500Y-73889149D01*
X123913818Y-73670176D01*
X123845308Y-73459324D01*
X123845306Y-73459321D01*
X123845306Y-73459319D01*
X123744656Y-73261784D01*
X123715283Y-73221356D01*
X123614343Y-73082424D01*
X123584074Y-73052155D01*
X145600000Y-73052155D01*
X145600000Y-73750000D01*
X146624722Y-73750000D01*
X146580667Y-73826306D01*
X146550000Y-73940756D01*
X146550000Y-74059244D01*
X146580667Y-74173694D01*
X146624722Y-74250000D01*
X145600000Y-74250000D01*
X145600000Y-74947844D01*
X145606401Y-75007372D01*
X145606403Y-75007379D01*
X145656645Y-75142086D01*
X145656649Y-75142093D01*
X145742809Y-75257187D01*
X145742812Y-75257190D01*
X145857906Y-75343350D01*
X145857913Y-75343354D01*
X145992620Y-75393596D01*
X145992627Y-75393598D01*
X146052155Y-75399999D01*
X146052172Y-75400000D01*
X146750000Y-75400000D01*
X146750000Y-74375277D01*
X146826306Y-74419333D01*
X146940756Y-74450000D01*
X147059244Y-74450000D01*
X147173694Y-74419333D01*
X147250000Y-74375277D01*
X147250000Y-75400000D01*
X147947828Y-75400000D01*
X147947844Y-75399999D01*
X148007372Y-75393598D01*
X148007379Y-75393596D01*
X148142086Y-75343354D01*
X148142093Y-75343350D01*
X148257187Y-75257190D01*
X148257190Y-75257187D01*
X148343350Y-75142093D01*
X148343354Y-75142086D01*
X148370140Y-75070270D01*
X148412011Y-75014336D01*
X148477475Y-74989919D01*
X148545748Y-75004770D01*
X148574003Y-75025922D01*
X148622424Y-75074343D01*
X148801785Y-75204657D01*
X148895114Y-75252210D01*
X148999319Y-75305306D01*
X148999321Y-75305306D01*
X148999324Y-75305308D01*
X149210176Y-75373818D01*
X149429149Y-75408500D01*
X149429150Y-75408500D01*
X149650850Y-75408500D01*
X149650851Y-75408500D01*
X149869824Y-75373818D01*
X150080676Y-75305308D01*
X150278215Y-75204657D01*
X150457576Y-75074343D01*
X150614343Y-74917576D01*
X150744657Y-74738215D01*
X150845308Y-74540676D01*
X150913818Y-74329824D01*
X150948500Y-74110851D01*
X150948500Y-73889149D01*
X150913818Y-73670176D01*
X150845308Y-73459324D01*
X150845306Y-73459321D01*
X150845306Y-73459319D01*
X150744656Y-73261784D01*
X150715283Y-73221356D01*
X150614343Y-73082424D01*
X150457576Y-72925657D01*
X150278215Y-72795343D01*
X150268090Y-72790184D01*
X150080680Y-72694693D01*
X149869824Y-72626182D01*
X149650851Y-72591500D01*
X149429149Y-72591500D01*
X149319662Y-72608841D01*
X149210175Y-72626182D01*
X148999319Y-72694693D01*
X148801784Y-72795343D01*
X148715675Y-72857906D01*
X148622424Y-72925657D01*
X148622422Y-72925659D01*
X148622420Y-72925660D01*
X148574002Y-72974078D01*
X148512679Y-73007562D01*
X148442987Y-73002577D01*
X148387054Y-72960705D01*
X148370140Y-72929729D01*
X148343354Y-72857913D01*
X148343350Y-72857906D01*
X148257190Y-72742812D01*
X148257187Y-72742809D01*
X148142093Y-72656649D01*
X148142086Y-72656645D01*
X148007379Y-72606403D01*
X148007372Y-72606401D01*
X147947844Y-72600000D01*
X147250000Y-72600000D01*
X147250000Y-73624722D01*
X147173694Y-73580667D01*
X147059244Y-73550000D01*
X146940756Y-73550000D01*
X146826306Y-73580667D01*
X146750000Y-73624722D01*
X146750000Y-72600000D01*
X146052155Y-72600000D01*
X145992627Y-72606401D01*
X145992620Y-72606403D01*
X145857913Y-72656645D01*
X145857906Y-72656649D01*
X145742812Y-72742809D01*
X145742809Y-72742812D01*
X145656649Y-72857906D01*
X145656645Y-72857913D01*
X145606403Y-72992620D01*
X145606401Y-72992627D01*
X145600000Y-73052155D01*
X123584074Y-73052155D01*
X123457576Y-72925657D01*
X123278215Y-72795343D01*
X123268090Y-72790184D01*
X123080680Y-72694693D01*
X122869824Y-72626182D01*
X122650851Y-72591500D01*
X122429149Y-72591500D01*
X122319662Y-72608841D01*
X122210175Y-72626182D01*
X121999319Y-72694693D01*
X121801784Y-72795343D01*
X121715675Y-72857906D01*
X121622424Y-72925657D01*
X121622422Y-72925659D01*
X121622420Y-72925660D01*
X121574002Y-72974078D01*
X121512679Y-73007562D01*
X121442987Y-73002577D01*
X121387054Y-72960705D01*
X121370140Y-72929729D01*
X121343354Y-72857913D01*
X121343350Y-72857906D01*
X121257190Y-72742812D01*
X121257187Y-72742809D01*
X121142093Y-72656649D01*
X121142086Y-72656645D01*
X121007379Y-72606403D01*
X121007372Y-72606401D01*
X120947844Y-72600000D01*
X120250000Y-72600000D01*
X120250000Y-73624722D01*
X120173694Y-73580667D01*
X120059244Y-73550000D01*
X119940756Y-73550000D01*
X119826306Y-73580667D01*
X119750000Y-73624722D01*
X119750000Y-72600000D01*
X119052155Y-72600000D01*
X118992627Y-72606401D01*
X118992620Y-72606403D01*
X118857913Y-72656645D01*
X118857906Y-72656649D01*
X118742812Y-72742809D01*
X118742809Y-72742812D01*
X118656649Y-72857906D01*
X118656645Y-72857913D01*
X118606403Y-72992620D01*
X118606401Y-72992627D01*
X118600000Y-73052155D01*
X116017134Y-73052155D01*
X116040627Y-73040185D01*
X116232722Y-72900620D01*
X116400620Y-72732722D01*
X116540185Y-72540627D01*
X116647982Y-72329063D01*
X116721356Y-72103241D01*
X116725185Y-72079063D01*
X116758500Y-71868727D01*
X116758500Y-71631272D01*
X116721356Y-71396758D01*
X116716324Y-71381272D01*
X151991500Y-71381272D01*
X151991500Y-71618727D01*
X152028643Y-71853241D01*
X152102019Y-72079067D01*
X152209815Y-72290627D01*
X152349380Y-72482722D01*
X152517278Y-72650620D01*
X152709373Y-72790185D01*
X152809328Y-72841114D01*
X152920932Y-72897980D01*
X152920934Y-72897980D01*
X152920937Y-72897982D01*
X153006112Y-72925657D01*
X153146758Y-72971356D01*
X153381273Y-73008500D01*
X153381278Y-73008500D01*
X153618727Y-73008500D01*
X153853241Y-72971356D01*
X153886021Y-72960705D01*
X154079063Y-72897982D01*
X154290627Y-72790185D01*
X154482722Y-72650620D01*
X154650620Y-72482722D01*
X154790185Y-72290627D01*
X154897982Y-72079063D01*
X154971356Y-71853241D01*
X155008500Y-71618727D01*
X155008500Y-71381272D01*
X158491500Y-71381272D01*
X158491500Y-71618727D01*
X158528643Y-71853241D01*
X158602019Y-72079067D01*
X158709815Y-72290627D01*
X158849380Y-72482722D01*
X159017278Y-72650620D01*
X159209373Y-72790185D01*
X159309328Y-72841114D01*
X159420932Y-72897980D01*
X159420934Y-72897980D01*
X159420937Y-72897982D01*
X159506112Y-72925657D01*
X159646758Y-72971356D01*
X159881273Y-73008500D01*
X159881278Y-73008500D01*
X160118727Y-73008500D01*
X160353241Y-72971356D01*
X160386021Y-72960705D01*
X160579063Y-72897982D01*
X160790627Y-72790185D01*
X160982722Y-72650620D01*
X161150620Y-72482722D01*
X161290185Y-72290627D01*
X161397982Y-72079063D01*
X161471356Y-71853241D01*
X161508500Y-71618727D01*
X161508500Y-71381272D01*
X161471356Y-71146758D01*
X161437312Y-71041984D01*
X161397982Y-70920937D01*
X161397980Y-70920934D01*
X161397980Y-70920932D01*
X161290184Y-70709372D01*
X161150620Y-70517278D01*
X160982722Y-70349380D01*
X160790627Y-70209815D01*
X160579067Y-70102019D01*
X160353241Y-70028643D01*
X160118727Y-69991500D01*
X160118722Y-69991500D01*
X159881278Y-69991500D01*
X159881273Y-69991500D01*
X159646758Y-70028643D01*
X159420932Y-70102019D01*
X159209372Y-70209815D01*
X159017275Y-70349382D01*
X158849382Y-70517275D01*
X158709815Y-70709372D01*
X158602019Y-70920932D01*
X158528643Y-71146758D01*
X158491500Y-71381272D01*
X155008500Y-71381272D01*
X154971356Y-71146758D01*
X154937312Y-71041984D01*
X154897982Y-70920937D01*
X154897980Y-70920934D01*
X154897980Y-70920932D01*
X154790184Y-70709372D01*
X154650620Y-70517278D01*
X154482722Y-70349380D01*
X154290627Y-70209815D01*
X154079067Y-70102019D01*
X153853241Y-70028643D01*
X153618727Y-69991500D01*
X153618722Y-69991500D01*
X153381278Y-69991500D01*
X153381273Y-69991500D01*
X153146758Y-70028643D01*
X152920932Y-70102019D01*
X152709372Y-70209815D01*
X152517275Y-70349382D01*
X152349382Y-70517275D01*
X152209815Y-70709372D01*
X152102019Y-70920932D01*
X152028643Y-71146758D01*
X151991500Y-71381272D01*
X116716324Y-71381272D01*
X116647980Y-71170932D01*
X116540184Y-70959372D01*
X116400620Y-70767278D01*
X116232722Y-70599380D01*
X116040627Y-70459815D01*
X115829067Y-70352019D01*
X115603241Y-70278643D01*
X115368727Y-70241500D01*
X115368722Y-70241500D01*
X115131278Y-70241500D01*
X115131273Y-70241500D01*
X114896758Y-70278643D01*
X114670932Y-70352019D01*
X114459372Y-70459815D01*
X114267275Y-70599382D01*
X114099382Y-70767275D01*
X113959815Y-70959372D01*
X113852019Y-71170932D01*
X113778643Y-71396758D01*
X113741500Y-71631272D01*
X110258500Y-71631272D01*
X110221356Y-71396758D01*
X110147980Y-71170932D01*
X110040184Y-70959372D01*
X109900620Y-70767278D01*
X109732722Y-70599380D01*
X109540627Y-70459815D01*
X109329067Y-70352019D01*
X109103241Y-70278643D01*
X108868727Y-70241500D01*
X108868722Y-70241500D01*
X108631278Y-70241500D01*
X108631273Y-70241500D01*
X108396758Y-70278643D01*
X108170932Y-70352019D01*
X107959372Y-70459815D01*
X107767275Y-70599382D01*
X107599382Y-70767275D01*
X107459815Y-70959372D01*
X107352019Y-71170932D01*
X107278643Y-71396758D01*
X107241500Y-71631272D01*
X100075500Y-71631272D01*
X100075500Y-67052155D01*
X133060000Y-67052155D01*
X133060000Y-67750000D01*
X134084722Y-67750000D01*
X134040667Y-67826306D01*
X134010000Y-67940756D01*
X134010000Y-68059244D01*
X134040667Y-68173694D01*
X134084722Y-68250000D01*
X133060000Y-68250000D01*
X133060000Y-68947844D01*
X133066401Y-69007372D01*
X133066403Y-69007379D01*
X133116645Y-69142086D01*
X133116649Y-69142093D01*
X133202809Y-69257187D01*
X133202812Y-69257190D01*
X133317906Y-69343350D01*
X133317913Y-69343354D01*
X133452620Y-69393596D01*
X133452627Y-69393598D01*
X133512155Y-69399999D01*
X133512172Y-69400000D01*
X134210000Y-69400000D01*
X134210000Y-68375277D01*
X134286306Y-68419333D01*
X134400756Y-68450000D01*
X134519244Y-68450000D01*
X134633694Y-68419333D01*
X134710000Y-68375277D01*
X134710000Y-69400000D01*
X135407828Y-69400000D01*
X135407844Y-69399999D01*
X135467372Y-69393598D01*
X135467379Y-69393596D01*
X135602086Y-69343354D01*
X135602093Y-69343350D01*
X135717187Y-69257190D01*
X135717190Y-69257187D01*
X135803350Y-69142093D01*
X135803354Y-69142086D01*
X135830140Y-69070270D01*
X135872011Y-69014336D01*
X135937475Y-68989919D01*
X136005748Y-69004770D01*
X136034003Y-69025922D01*
X136082424Y-69074343D01*
X136261785Y-69204657D01*
X136355114Y-69252210D01*
X136459319Y-69305306D01*
X136459321Y-69305306D01*
X136459324Y-69305308D01*
X136670176Y-69373818D01*
X136889149Y-69408500D01*
X136889150Y-69408500D01*
X137110850Y-69408500D01*
X137110851Y-69408500D01*
X137329824Y-69373818D01*
X137540676Y-69305308D01*
X137738215Y-69204657D01*
X137917576Y-69074343D01*
X138074343Y-68917576D01*
X138204657Y-68738215D01*
X138305308Y-68540676D01*
X138373818Y-68329824D01*
X138408500Y-68110851D01*
X138408500Y-67889149D01*
X138373818Y-67670176D01*
X138305308Y-67459324D01*
X138305306Y-67459321D01*
X138305306Y-67459319D01*
X138204656Y-67261784D01*
X138074343Y-67082424D01*
X137917576Y-66925657D01*
X137738215Y-66795343D01*
X137540680Y-66694693D01*
X137329824Y-66626182D01*
X137110851Y-66591500D01*
X136889149Y-66591500D01*
X136779662Y-66608841D01*
X136670175Y-66626182D01*
X136459319Y-66694693D01*
X136261784Y-66795343D01*
X136175675Y-66857906D01*
X136082424Y-66925657D01*
X136082422Y-66925659D01*
X136082420Y-66925660D01*
X136034002Y-66974078D01*
X135972679Y-67007562D01*
X135902987Y-67002577D01*
X135847054Y-66960705D01*
X135830140Y-66929729D01*
X135803354Y-66857913D01*
X135803350Y-66857906D01*
X135717190Y-66742812D01*
X135717187Y-66742809D01*
X135602093Y-66656649D01*
X135602086Y-66656645D01*
X135467379Y-66606403D01*
X135467372Y-66606401D01*
X135407844Y-66600000D01*
X134710000Y-66600000D01*
X134710000Y-67624722D01*
X134633694Y-67580667D01*
X134519244Y-67550000D01*
X134400756Y-67550000D01*
X134286306Y-67580667D01*
X134210000Y-67624722D01*
X134210000Y-66600000D01*
X133512155Y-66600000D01*
X133452627Y-66606401D01*
X133452620Y-66606403D01*
X133317913Y-66656645D01*
X133317906Y-66656649D01*
X133202812Y-66742809D01*
X133202809Y-66742812D01*
X133116649Y-66857906D01*
X133116645Y-66857913D01*
X133066403Y-66992620D01*
X133066401Y-66992627D01*
X133060000Y-67052155D01*
X100075500Y-67052155D01*
X100075500Y-64314038D01*
X164439500Y-64314038D01*
X164439500Y-64565961D01*
X164478910Y-64814785D01*
X164556760Y-65054383D01*
X164671132Y-65278848D01*
X164819201Y-65482649D01*
X164819205Y-65482654D01*
X164997345Y-65660794D01*
X164997350Y-65660798D01*
X165175117Y-65789952D01*
X165201155Y-65808870D01*
X165344184Y-65881747D01*
X165425616Y-65923239D01*
X165425618Y-65923239D01*
X165425621Y-65923241D01*
X165665215Y-66001090D01*
X165914038Y-66040500D01*
X165914039Y-66040500D01*
X166165961Y-66040500D01*
X166165962Y-66040500D01*
X166414785Y-66001090D01*
X166654379Y-65923241D01*
X166878845Y-65808870D01*
X167082656Y-65660793D01*
X167260793Y-65482656D01*
X167408870Y-65278845D01*
X167523241Y-65054379D01*
X167601090Y-64814785D01*
X167640500Y-64565962D01*
X167640500Y-64314038D01*
X167601090Y-64065215D01*
X167523241Y-63825621D01*
X167523239Y-63825618D01*
X167523239Y-63825616D01*
X167481747Y-63744184D01*
X167408870Y-63601155D01*
X167389952Y-63575117D01*
X167260798Y-63397350D01*
X167260794Y-63397345D01*
X167082654Y-63219205D01*
X167082649Y-63219201D01*
X166878848Y-63071132D01*
X166878847Y-63071131D01*
X166878845Y-63071130D01*
X166783666Y-63022634D01*
X166654383Y-62956760D01*
X166414785Y-62878910D01*
X166165962Y-62839500D01*
X165914038Y-62839500D01*
X165832402Y-62852430D01*
X165665214Y-62878910D01*
X165425616Y-62956760D01*
X165201151Y-63071132D01*
X164997350Y-63219201D01*
X164997345Y-63219205D01*
X164819205Y-63397345D01*
X164819201Y-63397350D01*
X164671132Y-63601151D01*
X164556760Y-63825616D01*
X164478910Y-64065214D01*
X164439500Y-64314038D01*
X100075500Y-64314038D01*
X100075500Y-61707019D01*
X118691500Y-61707019D01*
X118691500Y-61912980D01*
X118723719Y-62116408D01*
X118787367Y-62312294D01*
X118880873Y-62495806D01*
X119001926Y-62662423D01*
X119001930Y-62662428D01*
X119147571Y-62808069D01*
X119147576Y-62808073D01*
X119208629Y-62852430D01*
X119314197Y-62929129D01*
X119431128Y-62988709D01*
X119497705Y-63022632D01*
X119497707Y-63022632D01*
X119497710Y-63022634D01*
X119602707Y-63056749D01*
X119693591Y-63086280D01*
X119795305Y-63102390D01*
X119897019Y-63118500D01*
X119897020Y-63118500D01*
X120102980Y-63118500D01*
X120102981Y-63118500D01*
X120306408Y-63086280D01*
X120502290Y-63022634D01*
X120685803Y-62929129D01*
X120852430Y-62808068D01*
X120998068Y-62662430D01*
X121119129Y-62495803D01*
X121212634Y-62312290D01*
X121276280Y-62116408D01*
X121308500Y-61912981D01*
X121308500Y-61897019D01*
X125191500Y-61897019D01*
X125191500Y-62102980D01*
X125223719Y-62306408D01*
X125287367Y-62502294D01*
X125351671Y-62628496D01*
X125368958Y-62662423D01*
X125380873Y-62685806D01*
X125501926Y-62852423D01*
X125501930Y-62852428D01*
X125647571Y-62998069D01*
X125647576Y-62998073D01*
X125748134Y-63071132D01*
X125814197Y-63119129D01*
X125931128Y-63178709D01*
X125997705Y-63212632D01*
X125997707Y-63212632D01*
X125997710Y-63212634D01*
X126102707Y-63246749D01*
X126193591Y-63276280D01*
X126295305Y-63292390D01*
X126397019Y-63308500D01*
X126397020Y-63308500D01*
X126602980Y-63308500D01*
X126602981Y-63308500D01*
X126806408Y-63276280D01*
X127002290Y-63212634D01*
X127185803Y-63119129D01*
X127352430Y-62998068D01*
X127498068Y-62852430D01*
X127619129Y-62685803D01*
X127712634Y-62502290D01*
X127776280Y-62306408D01*
X127808500Y-62102981D01*
X127808500Y-61897019D01*
X132191500Y-61897019D01*
X132191500Y-62102980D01*
X132223719Y-62306408D01*
X132287367Y-62502294D01*
X132351671Y-62628496D01*
X132368958Y-62662423D01*
X132380873Y-62685806D01*
X132501926Y-62852423D01*
X132501930Y-62852428D01*
X132647571Y-62998069D01*
X132647576Y-62998073D01*
X132748134Y-63071132D01*
X132814197Y-63119129D01*
X132931128Y-63178709D01*
X132997705Y-63212632D01*
X132997707Y-63212632D01*
X132997710Y-63212634D01*
X133102707Y-63246749D01*
X133193591Y-63276280D01*
X133295305Y-63292390D01*
X133397019Y-63308500D01*
X133397020Y-63308500D01*
X133602980Y-63308500D01*
X133602981Y-63308500D01*
X133806408Y-63276280D01*
X134002290Y-63212634D01*
X134185803Y-63119129D01*
X134352430Y-62998068D01*
X134498068Y-62852430D01*
X134619129Y-62685803D01*
X134712634Y-62502290D01*
X134776280Y-62306408D01*
X134808500Y-62102981D01*
X134808500Y-61897019D01*
X138691500Y-61897019D01*
X138691500Y-62102980D01*
X138723719Y-62306408D01*
X138787367Y-62502294D01*
X138851671Y-62628496D01*
X138868958Y-62662423D01*
X138880873Y-62685806D01*
X139001926Y-62852423D01*
X139001930Y-62852428D01*
X139147571Y-62998069D01*
X139147576Y-62998073D01*
X139248134Y-63071132D01*
X139314197Y-63119129D01*
X139431128Y-63178709D01*
X139497705Y-63212632D01*
X139497707Y-63212632D01*
X139497710Y-63212634D01*
X139602707Y-63246749D01*
X139693591Y-63276280D01*
X139795305Y-63292390D01*
X139897019Y-63308500D01*
X139897020Y-63308500D01*
X140102980Y-63308500D01*
X140102981Y-63308500D01*
X140306408Y-63276280D01*
X140502290Y-63212634D01*
X140685803Y-63119129D01*
X140852430Y-62998068D01*
X140998068Y-62852430D01*
X141119129Y-62685803D01*
X141212634Y-62502290D01*
X141276280Y-62306408D01*
X141308500Y-62102981D01*
X141308500Y-61897019D01*
X145191500Y-61897019D01*
X145191500Y-62102980D01*
X145223719Y-62306408D01*
X145287367Y-62502294D01*
X145351671Y-62628496D01*
X145368958Y-62662423D01*
X145380873Y-62685806D01*
X145501926Y-62852423D01*
X145501930Y-62852428D01*
X145647571Y-62998069D01*
X145647576Y-62998073D01*
X145748134Y-63071132D01*
X145814197Y-63119129D01*
X145931128Y-63178709D01*
X145997705Y-63212632D01*
X145997707Y-63212632D01*
X145997710Y-63212634D01*
X146102707Y-63246749D01*
X146193591Y-63276280D01*
X146295305Y-63292390D01*
X146397019Y-63308500D01*
X146397020Y-63308500D01*
X146602980Y-63308500D01*
X146602981Y-63308500D01*
X146806408Y-63276280D01*
X147002290Y-63212634D01*
X147185803Y-63119129D01*
X147352430Y-62998068D01*
X147498068Y-62852430D01*
X147619129Y-62685803D01*
X147712634Y-62502290D01*
X147776280Y-62306408D01*
X147808500Y-62102981D01*
X147808500Y-61897019D01*
X147776280Y-61693592D01*
X147712634Y-61497710D01*
X147712632Y-61497707D01*
X147712632Y-61497705D01*
X147678709Y-61431128D01*
X147619129Y-61314197D01*
X147603661Y-61292908D01*
X147498073Y-61147576D01*
X147498069Y-61147571D01*
X147352428Y-61001930D01*
X147352423Y-61001926D01*
X147185806Y-60880873D01*
X147185805Y-60880872D01*
X147185803Y-60880871D01*
X147128496Y-60851671D01*
X147002294Y-60787367D01*
X146806408Y-60723719D01*
X146630794Y-60695905D01*
X146602981Y-60691500D01*
X146397019Y-60691500D01*
X146372550Y-60695375D01*
X146193591Y-60723719D01*
X145997705Y-60787367D01*
X145814193Y-60880873D01*
X145647576Y-61001926D01*
X145647571Y-61001930D01*
X145501930Y-61147571D01*
X145501926Y-61147576D01*
X145380873Y-61314193D01*
X145287367Y-61497705D01*
X145223719Y-61693591D01*
X145191500Y-61897019D01*
X141308500Y-61897019D01*
X141276280Y-61693592D01*
X141212634Y-61497710D01*
X141212632Y-61497707D01*
X141212632Y-61497705D01*
X141178709Y-61431128D01*
X141119129Y-61314197D01*
X141103661Y-61292908D01*
X140998073Y-61147576D01*
X140998069Y-61147571D01*
X140852428Y-61001930D01*
X140852423Y-61001926D01*
X140685806Y-60880873D01*
X140685805Y-60880872D01*
X140685803Y-60880871D01*
X140628496Y-60851671D01*
X140502294Y-60787367D01*
X140306408Y-60723719D01*
X140130794Y-60695905D01*
X140102981Y-60691500D01*
X139897019Y-60691500D01*
X139872550Y-60695375D01*
X139693591Y-60723719D01*
X139497705Y-60787367D01*
X139314193Y-60880873D01*
X139147576Y-61001926D01*
X139147571Y-61001930D01*
X139001930Y-61147571D01*
X139001926Y-61147576D01*
X138880873Y-61314193D01*
X138787367Y-61497705D01*
X138723719Y-61693591D01*
X138691500Y-61897019D01*
X134808500Y-61897019D01*
X134776280Y-61693592D01*
X134712634Y-61497710D01*
X134712632Y-61497707D01*
X134712632Y-61497705D01*
X134678709Y-61431128D01*
X134619129Y-61314197D01*
X134603661Y-61292908D01*
X134498073Y-61147576D01*
X134498069Y-61147571D01*
X134352428Y-61001930D01*
X134352423Y-61001926D01*
X134185806Y-60880873D01*
X134185805Y-60880872D01*
X134185803Y-60880871D01*
X134128496Y-60851671D01*
X134002294Y-60787367D01*
X133806408Y-60723719D01*
X133630794Y-60695905D01*
X133602981Y-60691500D01*
X133397019Y-60691500D01*
X133372550Y-60695375D01*
X133193591Y-60723719D01*
X132997705Y-60787367D01*
X132814193Y-60880873D01*
X132647576Y-61001926D01*
X132647571Y-61001930D01*
X132501930Y-61147571D01*
X132501926Y-61147576D01*
X132380873Y-61314193D01*
X132287367Y-61497705D01*
X132223719Y-61693591D01*
X132191500Y-61897019D01*
X127808500Y-61897019D01*
X127776280Y-61693592D01*
X127712634Y-61497710D01*
X127712632Y-61497707D01*
X127712632Y-61497705D01*
X127678709Y-61431128D01*
X127619129Y-61314197D01*
X127603661Y-61292908D01*
X127498073Y-61147576D01*
X127498069Y-61147571D01*
X127352428Y-61001930D01*
X127352423Y-61001926D01*
X127185806Y-60880873D01*
X127185805Y-60880872D01*
X127185803Y-60880871D01*
X127128496Y-60851671D01*
X127002294Y-60787367D01*
X126806408Y-60723719D01*
X126630794Y-60695905D01*
X126602981Y-60691500D01*
X126397019Y-60691500D01*
X126372550Y-60695375D01*
X126193591Y-60723719D01*
X125997705Y-60787367D01*
X125814193Y-60880873D01*
X125647576Y-61001926D01*
X125647571Y-61001930D01*
X125501930Y-61147571D01*
X125501926Y-61147576D01*
X125380873Y-61314193D01*
X125287367Y-61497705D01*
X125223719Y-61693591D01*
X125191500Y-61897019D01*
X121308500Y-61897019D01*
X121308500Y-61707019D01*
X121276280Y-61503592D01*
X121212634Y-61307710D01*
X121212632Y-61307707D01*
X121212632Y-61307705D01*
X121178709Y-61241128D01*
X121119129Y-61124197D01*
X121030299Y-61001932D01*
X120998073Y-60957576D01*
X120998069Y-60957571D01*
X120852428Y-60811930D01*
X120852423Y-60811926D01*
X120685806Y-60690873D01*
X120685805Y-60690872D01*
X120685803Y-60690871D01*
X120628496Y-60661671D01*
X120502294Y-60597367D01*
X120306408Y-60533719D01*
X120130794Y-60505905D01*
X120102981Y-60501500D01*
X119897019Y-60501500D01*
X119872550Y-60505375D01*
X119693591Y-60533719D01*
X119497705Y-60597367D01*
X119314193Y-60690873D01*
X119147576Y-60811926D01*
X119147571Y-60811930D01*
X119001930Y-60957571D01*
X119001926Y-60957576D01*
X118880873Y-61124193D01*
X118787367Y-61307705D01*
X118723719Y-61503591D01*
X118691500Y-61707019D01*
X100075500Y-61707019D01*
X100075500Y-54087019D01*
X118691500Y-54087019D01*
X118691500Y-54292980D01*
X118723719Y-54496408D01*
X118787367Y-54692294D01*
X118880873Y-54875806D01*
X119001926Y-55042423D01*
X119001930Y-55042428D01*
X119147571Y-55188069D01*
X119147576Y-55188073D01*
X119208629Y-55232430D01*
X119314197Y-55309129D01*
X119431128Y-55368709D01*
X119497705Y-55402632D01*
X119497707Y-55402632D01*
X119497710Y-55402634D01*
X119602707Y-55436749D01*
X119693591Y-55466280D01*
X119795305Y-55482390D01*
X119897019Y-55498500D01*
X119897020Y-55498500D01*
X120102980Y-55498500D01*
X120102981Y-55498500D01*
X120306408Y-55466280D01*
X120502290Y-55402634D01*
X120685803Y-55309129D01*
X120852430Y-55188068D01*
X120998068Y-55042430D01*
X121119129Y-54875803D01*
X121212634Y-54692290D01*
X121276280Y-54496408D01*
X121308500Y-54292981D01*
X121308500Y-54277019D01*
X125191500Y-54277019D01*
X125191500Y-54482980D01*
X125223719Y-54686408D01*
X125287367Y-54882294D01*
X125351671Y-55008496D01*
X125368958Y-55042423D01*
X125380873Y-55065806D01*
X125501926Y-55232423D01*
X125501930Y-55232428D01*
X125647571Y-55378069D01*
X125647576Y-55378073D01*
X125681382Y-55402634D01*
X125814197Y-55499129D01*
X125931128Y-55558709D01*
X125997705Y-55592632D01*
X125997707Y-55592632D01*
X125997710Y-55592634D01*
X126102707Y-55626749D01*
X126193591Y-55656280D01*
X126295305Y-55672390D01*
X126397019Y-55688500D01*
X126397020Y-55688500D01*
X126602980Y-55688500D01*
X126602981Y-55688500D01*
X126806408Y-55656280D01*
X127002290Y-55592634D01*
X127185803Y-55499129D01*
X127352430Y-55378068D01*
X127498068Y-55232430D01*
X127619129Y-55065803D01*
X127712634Y-54882290D01*
X127776280Y-54686408D01*
X127808500Y-54482981D01*
X127808500Y-54277019D01*
X132191500Y-54277019D01*
X132191500Y-54482980D01*
X132223719Y-54686408D01*
X132287367Y-54882294D01*
X132351671Y-55008496D01*
X132368958Y-55042423D01*
X132380873Y-55065806D01*
X132501926Y-55232423D01*
X132501930Y-55232428D01*
X132647571Y-55378069D01*
X132647576Y-55378073D01*
X132681382Y-55402634D01*
X132814197Y-55499129D01*
X132931128Y-55558709D01*
X132997705Y-55592632D01*
X132997707Y-55592632D01*
X132997710Y-55592634D01*
X133102707Y-55626749D01*
X133193591Y-55656280D01*
X133295305Y-55672390D01*
X133397019Y-55688500D01*
X133397020Y-55688500D01*
X133602980Y-55688500D01*
X133602981Y-55688500D01*
X133806408Y-55656280D01*
X134002290Y-55592634D01*
X134185803Y-55499129D01*
X134352430Y-55378068D01*
X134498068Y-55232430D01*
X134619129Y-55065803D01*
X134712634Y-54882290D01*
X134776280Y-54686408D01*
X134808500Y-54482981D01*
X134808500Y-54277019D01*
X138691500Y-54277019D01*
X138691500Y-54482980D01*
X138723719Y-54686408D01*
X138787367Y-54882294D01*
X138851671Y-55008496D01*
X138868958Y-55042423D01*
X138880873Y-55065806D01*
X139001926Y-55232423D01*
X139001930Y-55232428D01*
X139147571Y-55378069D01*
X139147576Y-55378073D01*
X139181382Y-55402634D01*
X139314197Y-55499129D01*
X139431128Y-55558709D01*
X139497705Y-55592632D01*
X139497707Y-55592632D01*
X139497710Y-55592634D01*
X139602707Y-55626749D01*
X139693591Y-55656280D01*
X139795305Y-55672390D01*
X139897019Y-55688500D01*
X139897020Y-55688500D01*
X140102980Y-55688500D01*
X140102981Y-55688500D01*
X140306408Y-55656280D01*
X140502290Y-55592634D01*
X140685803Y-55499129D01*
X140852430Y-55378068D01*
X140998068Y-55232430D01*
X141119129Y-55065803D01*
X141212634Y-54882290D01*
X141276280Y-54686408D01*
X141308500Y-54482981D01*
X141308500Y-54277019D01*
X145191500Y-54277019D01*
X145191500Y-54482980D01*
X145223719Y-54686408D01*
X145287367Y-54882294D01*
X145351671Y-55008496D01*
X145368958Y-55042423D01*
X145380873Y-55065806D01*
X145501926Y-55232423D01*
X145501930Y-55232428D01*
X145647571Y-55378069D01*
X145647576Y-55378073D01*
X145681382Y-55402634D01*
X145814197Y-55499129D01*
X145931128Y-55558709D01*
X145997705Y-55592632D01*
X145997707Y-55592632D01*
X145997710Y-55592634D01*
X146102707Y-55626749D01*
X146193591Y-55656280D01*
X146295305Y-55672390D01*
X146397019Y-55688500D01*
X146397020Y-55688500D01*
X146602980Y-55688500D01*
X146602981Y-55688500D01*
X146806408Y-55656280D01*
X147002290Y-55592634D01*
X147185803Y-55499129D01*
X147352430Y-55378068D01*
X147498068Y-55232430D01*
X147619129Y-55065803D01*
X147712634Y-54882290D01*
X147776280Y-54686408D01*
X147808500Y-54482981D01*
X147808500Y-54277019D01*
X147776280Y-54073592D01*
X147712634Y-53877710D01*
X147712632Y-53877707D01*
X147712632Y-53877705D01*
X147678709Y-53811128D01*
X147619129Y-53694197D01*
X147603661Y-53672908D01*
X147498073Y-53527576D01*
X147498069Y-53527571D01*
X147352428Y-53381930D01*
X147352423Y-53381926D01*
X147185806Y-53260873D01*
X147185805Y-53260872D01*
X147185803Y-53260871D01*
X147128496Y-53231671D01*
X147002294Y-53167367D01*
X146806408Y-53103719D01*
X146630794Y-53075905D01*
X146602981Y-53071500D01*
X146397019Y-53071500D01*
X146372550Y-53075375D01*
X146193591Y-53103719D01*
X145997705Y-53167367D01*
X145814193Y-53260873D01*
X145647576Y-53381926D01*
X145647571Y-53381930D01*
X145501930Y-53527571D01*
X145501926Y-53527576D01*
X145380873Y-53694193D01*
X145287367Y-53877705D01*
X145223719Y-54073591D01*
X145191500Y-54277019D01*
X141308500Y-54277019D01*
X141276280Y-54073592D01*
X141212634Y-53877710D01*
X141212632Y-53877707D01*
X141212632Y-53877705D01*
X141178709Y-53811128D01*
X141119129Y-53694197D01*
X141103661Y-53672908D01*
X140998073Y-53527576D01*
X140998069Y-53527571D01*
X140852428Y-53381930D01*
X140852423Y-53381926D01*
X140685806Y-53260873D01*
X140685805Y-53260872D01*
X140685803Y-53260871D01*
X140628496Y-53231671D01*
X140502294Y-53167367D01*
X140306408Y-53103719D01*
X140130794Y-53075905D01*
X140102981Y-53071500D01*
X139897019Y-53071500D01*
X139872550Y-53075375D01*
X139693591Y-53103719D01*
X139497705Y-53167367D01*
X139314193Y-53260873D01*
X139147576Y-53381926D01*
X139147571Y-53381930D01*
X139001930Y-53527571D01*
X139001926Y-53527576D01*
X138880873Y-53694193D01*
X138787367Y-53877705D01*
X138723719Y-54073591D01*
X138691500Y-54277019D01*
X134808500Y-54277019D01*
X134776280Y-54073592D01*
X134712634Y-53877710D01*
X134712632Y-53877707D01*
X134712632Y-53877705D01*
X134678709Y-53811128D01*
X134619129Y-53694197D01*
X134603661Y-53672908D01*
X134498073Y-53527576D01*
X134498069Y-53527571D01*
X134352428Y-53381930D01*
X134352423Y-53381926D01*
X134185806Y-53260873D01*
X134185805Y-53260872D01*
X134185803Y-53260871D01*
X134128496Y-53231671D01*
X134002294Y-53167367D01*
X133806408Y-53103719D01*
X133630794Y-53075905D01*
X133602981Y-53071500D01*
X133397019Y-53071500D01*
X133372550Y-53075375D01*
X133193591Y-53103719D01*
X132997705Y-53167367D01*
X132814193Y-53260873D01*
X132647576Y-53381926D01*
X132647571Y-53381930D01*
X132501930Y-53527571D01*
X132501926Y-53527576D01*
X132380873Y-53694193D01*
X132287367Y-53877705D01*
X132223719Y-54073591D01*
X132191500Y-54277019D01*
X127808500Y-54277019D01*
X127776280Y-54073592D01*
X127712634Y-53877710D01*
X127712632Y-53877707D01*
X127712632Y-53877705D01*
X127678709Y-53811128D01*
X127619129Y-53694197D01*
X127603661Y-53672908D01*
X127498073Y-53527576D01*
X127498069Y-53527571D01*
X127352428Y-53381930D01*
X127352423Y-53381926D01*
X127185806Y-53260873D01*
X127185805Y-53260872D01*
X127185803Y-53260871D01*
X127128496Y-53231671D01*
X127002294Y-53167367D01*
X126806408Y-53103719D01*
X126630794Y-53075905D01*
X126602981Y-53071500D01*
X126397019Y-53071500D01*
X126372550Y-53075375D01*
X126193591Y-53103719D01*
X125997705Y-53167367D01*
X125814193Y-53260873D01*
X125647576Y-53381926D01*
X125647571Y-53381930D01*
X125501930Y-53527571D01*
X125501926Y-53527576D01*
X125380873Y-53694193D01*
X125287367Y-53877705D01*
X125223719Y-54073591D01*
X125191500Y-54277019D01*
X121308500Y-54277019D01*
X121308500Y-54087019D01*
X121276280Y-53883592D01*
X121212634Y-53687710D01*
X121212632Y-53687707D01*
X121212632Y-53687705D01*
X121178709Y-53621128D01*
X121119129Y-53504197D01*
X121030299Y-53381932D01*
X120998073Y-53337576D01*
X120998069Y-53337571D01*
X120852428Y-53191930D01*
X120852423Y-53191926D01*
X120685806Y-53070873D01*
X120685805Y-53070872D01*
X120685803Y-53070871D01*
X120628496Y-53041671D01*
X120502294Y-52977367D01*
X120306408Y-52913719D01*
X120130794Y-52885905D01*
X120102981Y-52881500D01*
X119897019Y-52881500D01*
X119872550Y-52885375D01*
X119693591Y-52913719D01*
X119497705Y-52977367D01*
X119314193Y-53070873D01*
X119147576Y-53191926D01*
X119147571Y-53191930D01*
X119001930Y-53337571D01*
X119001926Y-53337576D01*
X118880873Y-53504193D01*
X118787367Y-53687705D01*
X118723719Y-53883591D01*
X118691500Y-54087019D01*
X100075500Y-54087019D01*
X100075500Y-49074038D01*
X113639500Y-49074038D01*
X113639500Y-49325961D01*
X113678910Y-49574785D01*
X113756760Y-49814383D01*
X113871132Y-50038848D01*
X114019201Y-50242649D01*
X114019205Y-50242654D01*
X114197345Y-50420794D01*
X114197350Y-50420798D01*
X114307587Y-50500889D01*
X114401155Y-50568870D01*
X114544184Y-50641747D01*
X114625616Y-50683239D01*
X114625618Y-50683239D01*
X114625621Y-50683241D01*
X114865215Y-50761090D01*
X115114038Y-50800500D01*
X115114039Y-50800500D01*
X115365961Y-50800500D01*
X115365962Y-50800500D01*
X115614785Y-50761090D01*
X115854379Y-50683241D01*
X116078845Y-50568870D01*
X116282656Y-50420793D01*
X116460793Y-50242656D01*
X116608870Y-50038845D01*
X116723241Y-49814379D01*
X116801090Y-49574785D01*
X116840500Y-49325962D01*
X116840500Y-49074038D01*
X116801090Y-48825215D01*
X116723241Y-48585621D01*
X116723239Y-48585618D01*
X116723239Y-48585616D01*
X116673498Y-48487994D01*
X116608870Y-48361155D01*
X116565416Y-48301345D01*
X117437500Y-48301345D01*
X117437500Y-50098654D01*
X117444011Y-50159202D01*
X117444011Y-50159204D01*
X117475138Y-50242656D01*
X117495111Y-50296204D01*
X117582739Y-50413261D01*
X117699796Y-50500889D01*
X117836799Y-50551989D01*
X117864050Y-50554918D01*
X117897345Y-50558499D01*
X117897362Y-50558500D01*
X119694638Y-50558500D01*
X119694654Y-50558499D01*
X119721692Y-50555591D01*
X119755201Y-50551989D01*
X119892204Y-50500889D01*
X120009261Y-50413261D01*
X120096889Y-50296204D01*
X120141957Y-50175371D01*
X120183827Y-50119442D01*
X120249291Y-50095025D01*
X120317564Y-50109877D01*
X120345818Y-50131028D01*
X120450996Y-50236206D01*
X120623991Y-50361894D01*
X120717438Y-50409507D01*
X120814516Y-50458972D01*
X120814519Y-50458973D01*
X120916200Y-50492010D01*
X121017884Y-50525049D01*
X121229084Y-50558500D01*
X121229085Y-50558500D01*
X121442915Y-50558500D01*
X121442916Y-50558500D01*
X121654116Y-50525049D01*
X121857483Y-50458972D01*
X122048009Y-50361894D01*
X122221004Y-50236206D01*
X122372206Y-50085004D01*
X122497894Y-49912009D01*
X122497896Y-49912004D01*
X122500270Y-49908132D01*
X122552080Y-49861254D01*
X122621009Y-49849829D01*
X122685173Y-49877483D01*
X122711730Y-49908132D01*
X122714103Y-49912005D01*
X122714105Y-49912008D01*
X122714106Y-49912009D01*
X122839794Y-50085004D01*
X122990996Y-50236206D01*
X123163991Y-50361894D01*
X123257438Y-50409507D01*
X123354516Y-50458972D01*
X123354519Y-50458973D01*
X123456200Y-50492010D01*
X123557884Y-50525049D01*
X123769084Y-50558500D01*
X123769085Y-50558500D01*
X123982915Y-50558500D01*
X123982916Y-50558500D01*
X124194116Y-50525049D01*
X124397483Y-50458972D01*
X124588009Y-50361894D01*
X124761004Y-50236206D01*
X124912206Y-50085004D01*
X125037894Y-49912009D01*
X125040283Y-49907319D01*
X125088254Y-49856522D01*
X125156074Y-49839724D01*
X125222210Y-49862258D01*
X125258201Y-49903788D01*
X125258832Y-49903402D01*
X125261164Y-49907207D01*
X125261251Y-49907308D01*
X125261376Y-49907554D01*
X125386272Y-50079459D01*
X125386276Y-50079464D01*
X125536535Y-50229723D01*
X125536540Y-50229727D01*
X125708442Y-50354620D01*
X125897782Y-50451095D01*
X126099871Y-50516757D01*
X126166000Y-50527231D01*
X126166000Y-49633012D01*
X126223007Y-49665925D01*
X126350174Y-49700000D01*
X126481826Y-49700000D01*
X126608993Y-49665925D01*
X126666000Y-49633012D01*
X126666000Y-50527230D01*
X126732126Y-50516757D01*
X126732129Y-50516757D01*
X126934217Y-50451095D01*
X127123557Y-50354620D01*
X127295459Y-50229727D01*
X127295464Y-50229723D01*
X127445723Y-50079464D01*
X127445727Y-50079459D01*
X127570619Y-49907560D01*
X127570738Y-49907327D01*
X127570808Y-49907252D01*
X127573168Y-49903402D01*
X127573976Y-49903897D01*
X127618707Y-49856526D01*
X127686526Y-49839723D01*
X127752663Y-49862254D01*
X127791712Y-49907311D01*
X127794105Y-49912008D01*
X127836002Y-49969674D01*
X127919794Y-50085004D01*
X128070996Y-50236206D01*
X128243991Y-50361894D01*
X128337438Y-50409507D01*
X128434516Y-50458972D01*
X128434519Y-50458973D01*
X128536200Y-50492010D01*
X128637884Y-50525049D01*
X128849084Y-50558500D01*
X128849085Y-50558500D01*
X129062915Y-50558500D01*
X129062916Y-50558500D01*
X129274116Y-50525049D01*
X129477483Y-50458972D01*
X129668009Y-50361894D01*
X129841004Y-50236206D01*
X129992206Y-50085004D01*
X130117894Y-49912009D01*
X130117896Y-49912004D01*
X130120270Y-49908132D01*
X130172080Y-49861254D01*
X130241009Y-49849829D01*
X130305173Y-49877483D01*
X130331730Y-49908132D01*
X130334103Y-49912005D01*
X130334105Y-49912008D01*
X130334106Y-49912009D01*
X130459794Y-50085004D01*
X130610996Y-50236206D01*
X130783991Y-50361894D01*
X130877438Y-50409507D01*
X130974516Y-50458972D01*
X130974519Y-50458973D01*
X131076200Y-50492010D01*
X131177884Y-50525049D01*
X131389084Y-50558500D01*
X131389085Y-50558500D01*
X131602915Y-50558500D01*
X131602916Y-50558500D01*
X131814116Y-50525049D01*
X132017483Y-50458972D01*
X132208009Y-50361894D01*
X132381004Y-50236206D01*
X132532206Y-50085004D01*
X132657894Y-49912009D01*
X132657896Y-49912004D01*
X132660270Y-49908132D01*
X132712080Y-49861254D01*
X132781009Y-49849829D01*
X132845173Y-49877483D01*
X132871730Y-49908132D01*
X132874103Y-49912005D01*
X132874105Y-49912008D01*
X132874106Y-49912009D01*
X132999794Y-50085004D01*
X133150996Y-50236206D01*
X133323991Y-50361894D01*
X133417438Y-50409507D01*
X133514516Y-50458972D01*
X133514519Y-50458973D01*
X133616200Y-50492010D01*
X133717884Y-50525049D01*
X133929084Y-50558500D01*
X133929085Y-50558500D01*
X134142915Y-50558500D01*
X134142916Y-50558500D01*
X134354116Y-50525049D01*
X134557483Y-50458972D01*
X134748009Y-50361894D01*
X134921004Y-50236206D01*
X135072206Y-50085004D01*
X135197894Y-49912009D01*
X135197896Y-49912004D01*
X135200270Y-49908132D01*
X135252080Y-49861254D01*
X135321009Y-49849829D01*
X135385173Y-49877483D01*
X135411730Y-49908132D01*
X135414103Y-49912005D01*
X135414105Y-49912008D01*
X135414106Y-49912009D01*
X135539794Y-50085004D01*
X135690996Y-50236206D01*
X135863991Y-50361894D01*
X135957438Y-50409507D01*
X136054516Y-50458972D01*
X136054519Y-50458973D01*
X136156200Y-50492010D01*
X136257884Y-50525049D01*
X136469084Y-50558500D01*
X136469085Y-50558500D01*
X136682915Y-50558500D01*
X136682916Y-50558500D01*
X136894116Y-50525049D01*
X137097483Y-50458972D01*
X137288009Y-50361894D01*
X137461004Y-50236206D01*
X137612206Y-50085004D01*
X137737894Y-49912009D01*
X137737896Y-49912004D01*
X137740270Y-49908132D01*
X137792080Y-49861254D01*
X137861009Y-49849829D01*
X137925173Y-49877483D01*
X137951730Y-49908132D01*
X137954103Y-49912005D01*
X137954105Y-49912008D01*
X137954106Y-49912009D01*
X138079794Y-50085004D01*
X138230996Y-50236206D01*
X138403991Y-50361894D01*
X138497438Y-50409507D01*
X138594516Y-50458972D01*
X138594519Y-50458973D01*
X138696200Y-50492010D01*
X138797884Y-50525049D01*
X139009084Y-50558500D01*
X139009085Y-50558500D01*
X139222915Y-50558500D01*
X139222916Y-50558500D01*
X139434116Y-50525049D01*
X139637483Y-50458972D01*
X139828009Y-50361894D01*
X140001004Y-50236206D01*
X140152206Y-50085004D01*
X140277894Y-49912009D01*
X140277896Y-49912004D01*
X140280270Y-49908132D01*
X140332080Y-49861254D01*
X140401009Y-49849829D01*
X140465173Y-49877483D01*
X140491730Y-49908132D01*
X140494103Y-49912005D01*
X140494105Y-49912008D01*
X140494106Y-49912009D01*
X140619794Y-50085004D01*
X140770996Y-50236206D01*
X140943991Y-50361894D01*
X141037438Y-50409507D01*
X141134516Y-50458972D01*
X141134519Y-50458973D01*
X141236200Y-50492010D01*
X141337884Y-50525049D01*
X141549084Y-50558500D01*
X141549085Y-50558500D01*
X141762915Y-50558500D01*
X141762916Y-50558500D01*
X141974116Y-50525049D01*
X142177483Y-50458972D01*
X142368009Y-50361894D01*
X142541004Y-50236206D01*
X142692206Y-50085004D01*
X142817894Y-49912009D01*
X142914972Y-49721483D01*
X142981049Y-49518116D01*
X143014500Y-49306916D01*
X143014500Y-49093084D01*
X142981049Y-48881884D01*
X142914972Y-48678517D01*
X142914972Y-48678516D01*
X142867639Y-48585621D01*
X142817894Y-48487991D01*
X142692206Y-48314996D01*
X142678555Y-48301345D01*
X144361500Y-48301345D01*
X144361500Y-50098654D01*
X144368011Y-50159202D01*
X144368011Y-50159204D01*
X144399138Y-50242656D01*
X144419111Y-50296204D01*
X144506739Y-50413261D01*
X144623796Y-50500889D01*
X144760799Y-50551989D01*
X144788050Y-50554918D01*
X144821345Y-50558499D01*
X144821362Y-50558500D01*
X146618638Y-50558500D01*
X146618654Y-50558499D01*
X146645692Y-50555591D01*
X146679201Y-50551989D01*
X146816204Y-50500889D01*
X146933261Y-50413261D01*
X147020889Y-50296204D01*
X147065957Y-50175371D01*
X147107827Y-50119442D01*
X147173291Y-50095025D01*
X147241564Y-50109877D01*
X147269818Y-50131028D01*
X147374996Y-50236206D01*
X147547991Y-50361894D01*
X147641438Y-50409507D01*
X147738516Y-50458972D01*
X147738519Y-50458973D01*
X147840200Y-50492010D01*
X147941884Y-50525049D01*
X148153084Y-50558500D01*
X148153085Y-50558500D01*
X148366915Y-50558500D01*
X148366916Y-50558500D01*
X148578116Y-50525049D01*
X148781483Y-50458972D01*
X148972009Y-50361894D01*
X149145004Y-50236206D01*
X149296206Y-50085004D01*
X149421894Y-49912009D01*
X149421896Y-49912004D01*
X149424270Y-49908132D01*
X149476080Y-49861254D01*
X149545009Y-49849829D01*
X149609173Y-49877483D01*
X149635730Y-49908132D01*
X149638103Y-49912005D01*
X149638105Y-49912008D01*
X149638106Y-49912009D01*
X149763794Y-50085004D01*
X149914996Y-50236206D01*
X150087991Y-50361894D01*
X150181438Y-50409507D01*
X150278516Y-50458972D01*
X150278519Y-50458973D01*
X150380200Y-50492010D01*
X150481884Y-50525049D01*
X150693084Y-50558500D01*
X150693085Y-50558500D01*
X150906915Y-50558500D01*
X150906916Y-50558500D01*
X151118116Y-50525049D01*
X151321483Y-50458972D01*
X151512009Y-50361894D01*
X151685004Y-50236206D01*
X151836206Y-50085004D01*
X151961894Y-49912009D01*
X151961896Y-49912004D01*
X151964270Y-49908132D01*
X152016080Y-49861254D01*
X152085009Y-49849829D01*
X152149173Y-49877483D01*
X152175730Y-49908132D01*
X152178103Y-49912005D01*
X152178105Y-49912008D01*
X152178106Y-49912009D01*
X152303794Y-50085004D01*
X152454996Y-50236206D01*
X152627991Y-50361894D01*
X152721438Y-50409507D01*
X152818516Y-50458972D01*
X152818519Y-50458973D01*
X152920200Y-50492010D01*
X153021884Y-50525049D01*
X153233084Y-50558500D01*
X153233085Y-50558500D01*
X153446915Y-50558500D01*
X153446916Y-50558500D01*
X153658116Y-50525049D01*
X153861483Y-50458972D01*
X154052009Y-50361894D01*
X154225004Y-50236206D01*
X154376206Y-50085004D01*
X154501894Y-49912009D01*
X154501896Y-49912004D01*
X154504270Y-49908132D01*
X154556080Y-49861254D01*
X154625009Y-49849829D01*
X154689173Y-49877483D01*
X154715730Y-49908132D01*
X154718103Y-49912005D01*
X154718105Y-49912008D01*
X154718106Y-49912009D01*
X154843794Y-50085004D01*
X154994996Y-50236206D01*
X155167991Y-50361894D01*
X155261438Y-50409507D01*
X155358516Y-50458972D01*
X155358519Y-50458973D01*
X155460200Y-50492010D01*
X155561884Y-50525049D01*
X155773084Y-50558500D01*
X155773085Y-50558500D01*
X155986915Y-50558500D01*
X155986916Y-50558500D01*
X156198116Y-50525049D01*
X156401483Y-50458972D01*
X156592009Y-50361894D01*
X156765004Y-50236206D01*
X156916206Y-50085004D01*
X157041894Y-49912009D01*
X157041896Y-49912004D01*
X157044270Y-49908132D01*
X157096080Y-49861254D01*
X157165009Y-49849829D01*
X157229173Y-49877483D01*
X157255730Y-49908132D01*
X157258103Y-49912005D01*
X157258105Y-49912008D01*
X157258106Y-49912009D01*
X157383794Y-50085004D01*
X157534996Y-50236206D01*
X157707991Y-50361894D01*
X157801438Y-50409507D01*
X157898516Y-50458972D01*
X157898519Y-50458973D01*
X158000200Y-50492010D01*
X158101884Y-50525049D01*
X158313084Y-50558500D01*
X158313085Y-50558500D01*
X158526915Y-50558500D01*
X158526916Y-50558500D01*
X158738116Y-50525049D01*
X158941483Y-50458972D01*
X159132009Y-50361894D01*
X159305004Y-50236206D01*
X159456206Y-50085004D01*
X159581894Y-49912009D01*
X159581896Y-49912004D01*
X159584270Y-49908132D01*
X159636080Y-49861254D01*
X159705009Y-49849829D01*
X159769173Y-49877483D01*
X159795730Y-49908132D01*
X159798103Y-49912005D01*
X159798105Y-49912008D01*
X159798106Y-49912009D01*
X159923794Y-50085004D01*
X160074996Y-50236206D01*
X160247991Y-50361894D01*
X160341438Y-50409507D01*
X160438516Y-50458972D01*
X160438519Y-50458973D01*
X160540200Y-50492010D01*
X160641884Y-50525049D01*
X160853084Y-50558500D01*
X160853085Y-50558500D01*
X161066915Y-50558500D01*
X161066916Y-50558500D01*
X161278116Y-50525049D01*
X161481483Y-50458972D01*
X161672009Y-50361894D01*
X161845004Y-50236206D01*
X161996206Y-50085004D01*
X162121894Y-49912009D01*
X162121896Y-49912004D01*
X162124270Y-49908132D01*
X162176080Y-49861254D01*
X162245009Y-49849829D01*
X162309173Y-49877483D01*
X162335730Y-49908132D01*
X162338103Y-49912005D01*
X162338105Y-49912008D01*
X162338106Y-49912009D01*
X162463794Y-50085004D01*
X162614996Y-50236206D01*
X162787991Y-50361894D01*
X162881438Y-50409507D01*
X162978516Y-50458972D01*
X162978519Y-50458973D01*
X163080200Y-50492010D01*
X163181884Y-50525049D01*
X163393084Y-50558500D01*
X163393085Y-50558500D01*
X163606915Y-50558500D01*
X163606916Y-50558500D01*
X163818116Y-50525049D01*
X164021483Y-50458972D01*
X164212009Y-50361894D01*
X164385004Y-50236206D01*
X164536206Y-50085004D01*
X164661894Y-49912009D01*
X164758972Y-49721483D01*
X164825049Y-49518116D01*
X164858500Y-49306916D01*
X164858500Y-49093084D01*
X164825049Y-48881884D01*
X164758972Y-48678517D01*
X164758972Y-48678516D01*
X164709507Y-48581438D01*
X164661894Y-48487991D01*
X164536206Y-48314996D01*
X164385004Y-48163794D01*
X164212009Y-48038106D01*
X164021483Y-47941027D01*
X164021480Y-47941026D01*
X163818117Y-47874951D01*
X163712516Y-47858225D01*
X163606916Y-47841500D01*
X163393084Y-47841500D01*
X163322684Y-47852650D01*
X163181882Y-47874951D01*
X162978519Y-47941026D01*
X162978516Y-47941027D01*
X162787990Y-48038106D01*
X162614993Y-48163796D01*
X162463796Y-48314993D01*
X162338105Y-48487991D01*
X162335727Y-48491873D01*
X162283914Y-48538748D01*
X162214984Y-48550169D01*
X162150822Y-48522512D01*
X162124273Y-48491873D01*
X162121894Y-48487991D01*
X162121891Y-48487987D01*
X161996206Y-48314996D01*
X161845004Y-48163794D01*
X161672009Y-48038106D01*
X161481483Y-47941027D01*
X161481480Y-47941026D01*
X161278117Y-47874951D01*
X161172516Y-47858225D01*
X161066916Y-47841500D01*
X160853084Y-47841500D01*
X160782684Y-47852650D01*
X160641882Y-47874951D01*
X160438519Y-47941026D01*
X160438516Y-47941027D01*
X160247990Y-48038106D01*
X160074993Y-48163796D01*
X159923796Y-48314993D01*
X159798105Y-48487991D01*
X159795727Y-48491873D01*
X159743914Y-48538748D01*
X159674984Y-48550169D01*
X159610822Y-48522512D01*
X159584273Y-48491873D01*
X159581894Y-48487991D01*
X159581891Y-48487987D01*
X159456206Y-48314996D01*
X159305004Y-48163794D01*
X159132009Y-48038106D01*
X158941483Y-47941027D01*
X158941480Y-47941026D01*
X158738117Y-47874951D01*
X158632516Y-47858225D01*
X158526916Y-47841500D01*
X158313084Y-47841500D01*
X158242684Y-47852650D01*
X158101882Y-47874951D01*
X157898519Y-47941026D01*
X157898516Y-47941027D01*
X157707990Y-48038106D01*
X157534993Y-48163796D01*
X157383796Y-48314993D01*
X157258105Y-48487991D01*
X157255727Y-48491873D01*
X157203914Y-48538748D01*
X157134984Y-48550169D01*
X157070822Y-48522512D01*
X157044273Y-48491873D01*
X157041894Y-48487991D01*
X157041891Y-48487987D01*
X156916206Y-48314996D01*
X156765004Y-48163794D01*
X156592009Y-48038106D01*
X156401483Y-47941027D01*
X156401480Y-47941026D01*
X156198117Y-47874951D01*
X156092516Y-47858225D01*
X155986916Y-47841500D01*
X155773084Y-47841500D01*
X155702684Y-47852650D01*
X155561882Y-47874951D01*
X155358519Y-47941026D01*
X155358516Y-47941027D01*
X155167990Y-48038106D01*
X154994993Y-48163796D01*
X154843796Y-48314993D01*
X154718105Y-48487991D01*
X154715727Y-48491873D01*
X154663914Y-48538748D01*
X154594984Y-48550169D01*
X154530822Y-48522512D01*
X154504273Y-48491873D01*
X154501894Y-48487991D01*
X154501891Y-48487987D01*
X154376206Y-48314996D01*
X154225004Y-48163794D01*
X154052009Y-48038106D01*
X153861483Y-47941027D01*
X153861480Y-47941026D01*
X153658117Y-47874951D01*
X153552516Y-47858225D01*
X153446916Y-47841500D01*
X153233084Y-47841500D01*
X153162684Y-47852650D01*
X153021882Y-47874951D01*
X152818519Y-47941026D01*
X152818516Y-47941027D01*
X152627990Y-48038106D01*
X152454993Y-48163796D01*
X152303796Y-48314993D01*
X152178105Y-48487991D01*
X152175727Y-48491873D01*
X152123914Y-48538748D01*
X152054984Y-48550169D01*
X151990822Y-48522512D01*
X151964273Y-48491873D01*
X151961894Y-48487991D01*
X151961891Y-48487987D01*
X151836206Y-48314996D01*
X151685004Y-48163794D01*
X151512009Y-48038106D01*
X151321483Y-47941027D01*
X151321480Y-47941026D01*
X151118117Y-47874951D01*
X151012516Y-47858225D01*
X150906916Y-47841500D01*
X150693084Y-47841500D01*
X150622684Y-47852650D01*
X150481882Y-47874951D01*
X150278519Y-47941026D01*
X150278516Y-47941027D01*
X150087990Y-48038106D01*
X149914993Y-48163796D01*
X149763796Y-48314993D01*
X149638105Y-48487991D01*
X149635727Y-48491873D01*
X149583914Y-48538748D01*
X149514984Y-48550169D01*
X149450822Y-48522512D01*
X149424273Y-48491873D01*
X149421894Y-48487991D01*
X149421891Y-48487987D01*
X149296206Y-48314996D01*
X149145004Y-48163794D01*
X148972009Y-48038106D01*
X148781483Y-47941027D01*
X148781480Y-47941026D01*
X148578117Y-47874951D01*
X148472516Y-47858225D01*
X148366916Y-47841500D01*
X148153084Y-47841500D01*
X148082684Y-47852650D01*
X147941882Y-47874951D01*
X147738519Y-47941026D01*
X147738516Y-47941027D01*
X147547990Y-48038106D01*
X147374997Y-48163793D01*
X147269818Y-48268972D01*
X147208495Y-48302456D01*
X147138803Y-48297472D01*
X147082870Y-48255600D01*
X147065958Y-48224629D01*
X147020889Y-48103796D01*
X146933261Y-47986739D01*
X146816204Y-47899111D01*
X146679203Y-47848011D01*
X146618654Y-47841500D01*
X146618638Y-47841500D01*
X144821362Y-47841500D01*
X144821345Y-47841500D01*
X144760797Y-47848011D01*
X144760795Y-47848011D01*
X144623795Y-47899111D01*
X144506739Y-47986739D01*
X144419111Y-48103795D01*
X144368011Y-48240795D01*
X144368011Y-48240797D01*
X144361500Y-48301345D01*
X142678555Y-48301345D01*
X142541004Y-48163794D01*
X142368009Y-48038106D01*
X142177483Y-47941027D01*
X142177480Y-47941026D01*
X141974117Y-47874951D01*
X141868516Y-47858225D01*
X141762916Y-47841500D01*
X141549084Y-47841500D01*
X141478684Y-47852650D01*
X141337882Y-47874951D01*
X141134519Y-47941026D01*
X141134516Y-47941027D01*
X140943990Y-48038106D01*
X140770993Y-48163796D01*
X140619796Y-48314993D01*
X140494105Y-48487991D01*
X140491727Y-48491873D01*
X140439914Y-48538748D01*
X140370984Y-48550169D01*
X140306822Y-48522512D01*
X140280273Y-48491873D01*
X140277894Y-48487991D01*
X140277891Y-48487987D01*
X140152206Y-48314996D01*
X140001004Y-48163794D01*
X139828009Y-48038106D01*
X139637483Y-47941027D01*
X139637480Y-47941026D01*
X139434117Y-47874951D01*
X139328516Y-47858225D01*
X139222916Y-47841500D01*
X139009084Y-47841500D01*
X138938684Y-47852650D01*
X138797882Y-47874951D01*
X138594519Y-47941026D01*
X138594516Y-47941027D01*
X138403990Y-48038106D01*
X138230993Y-48163796D01*
X138079796Y-48314993D01*
X137954105Y-48487991D01*
X137951727Y-48491873D01*
X137899914Y-48538748D01*
X137830984Y-48550169D01*
X137766822Y-48522512D01*
X137740273Y-48491873D01*
X137737894Y-48487991D01*
X137737891Y-48487987D01*
X137612206Y-48314996D01*
X137461004Y-48163794D01*
X137288009Y-48038106D01*
X137097483Y-47941027D01*
X137097480Y-47941026D01*
X136894117Y-47874951D01*
X136788516Y-47858225D01*
X136682916Y-47841500D01*
X136469084Y-47841500D01*
X136398684Y-47852650D01*
X136257882Y-47874951D01*
X136054519Y-47941026D01*
X136054516Y-47941027D01*
X135863990Y-48038106D01*
X135690993Y-48163796D01*
X135539796Y-48314993D01*
X135414105Y-48487991D01*
X135411727Y-48491873D01*
X135359914Y-48538748D01*
X135290984Y-48550169D01*
X135226822Y-48522512D01*
X135200273Y-48491873D01*
X135197894Y-48487991D01*
X135197891Y-48487987D01*
X135072206Y-48314996D01*
X134921004Y-48163794D01*
X134748009Y-48038106D01*
X134557483Y-47941027D01*
X134557480Y-47941026D01*
X134354117Y-47874951D01*
X134248516Y-47858225D01*
X134142916Y-47841500D01*
X133929084Y-47841500D01*
X133858684Y-47852650D01*
X133717882Y-47874951D01*
X133514519Y-47941026D01*
X133514516Y-47941027D01*
X133323990Y-48038106D01*
X133150993Y-48163796D01*
X132999796Y-48314993D01*
X132874105Y-48487991D01*
X132871727Y-48491873D01*
X132819914Y-48538748D01*
X132750984Y-48550169D01*
X132686822Y-48522512D01*
X132660273Y-48491873D01*
X132657894Y-48487991D01*
X132657891Y-48487987D01*
X132532206Y-48314996D01*
X132381004Y-48163794D01*
X132208009Y-48038106D01*
X132017483Y-47941027D01*
X132017480Y-47941026D01*
X131814117Y-47874951D01*
X131708516Y-47858225D01*
X131602916Y-47841500D01*
X131389084Y-47841500D01*
X131318684Y-47852650D01*
X131177882Y-47874951D01*
X130974519Y-47941026D01*
X130974516Y-47941027D01*
X130783990Y-48038106D01*
X130610993Y-48163796D01*
X130459796Y-48314993D01*
X130334105Y-48487991D01*
X130331727Y-48491873D01*
X130279914Y-48538748D01*
X130210984Y-48550169D01*
X130146822Y-48522512D01*
X130120273Y-48491873D01*
X130117894Y-48487991D01*
X130117891Y-48487987D01*
X129992206Y-48314996D01*
X129841004Y-48163794D01*
X129668009Y-48038106D01*
X129477483Y-47941027D01*
X129477480Y-47941026D01*
X129274117Y-47874951D01*
X129168516Y-47858225D01*
X129062916Y-47841500D01*
X128849084Y-47841500D01*
X128778684Y-47852650D01*
X128637882Y-47874951D01*
X128434519Y-47941026D01*
X128434516Y-47941027D01*
X128243990Y-48038106D01*
X128070993Y-48163796D01*
X127919796Y-48314993D01*
X127794103Y-48487994D01*
X127791709Y-48492693D01*
X127743731Y-48543485D01*
X127675908Y-48560275D01*
X127609775Y-48537732D01*
X127573800Y-48496210D01*
X127573168Y-48496598D01*
X127570829Y-48492781D01*
X127570743Y-48492682D01*
X127570620Y-48492441D01*
X127445727Y-48320540D01*
X127445723Y-48320535D01*
X127295464Y-48170276D01*
X127295459Y-48170272D01*
X127123557Y-48045379D01*
X126934215Y-47948903D01*
X126732124Y-47883241D01*
X126666000Y-47872768D01*
X126666000Y-48766988D01*
X126608993Y-48734075D01*
X126481826Y-48700000D01*
X126350174Y-48700000D01*
X126223007Y-48734075D01*
X126166000Y-48766988D01*
X126166000Y-47872768D01*
X126165999Y-47872768D01*
X126099875Y-47883241D01*
X125897784Y-47948903D01*
X125708442Y-48045379D01*
X125536540Y-48170272D01*
X125536535Y-48170276D01*
X125386276Y-48320535D01*
X125386272Y-48320540D01*
X125261376Y-48492446D01*
X125261374Y-48492448D01*
X125261246Y-48492701D01*
X125261172Y-48492779D01*
X125258832Y-48496598D01*
X125258029Y-48496106D01*
X125213264Y-48543489D01*
X125145441Y-48560274D01*
X125079309Y-48537727D01*
X125040285Y-48492683D01*
X125037895Y-48487992D01*
X125006472Y-48444742D01*
X124912206Y-48314996D01*
X124761004Y-48163794D01*
X124588009Y-48038106D01*
X124397483Y-47941027D01*
X124397480Y-47941026D01*
X124194117Y-47874951D01*
X124088516Y-47858225D01*
X123982916Y-47841500D01*
X123769084Y-47841500D01*
X123698684Y-47852650D01*
X123557882Y-47874951D01*
X123354519Y-47941026D01*
X123354516Y-47941027D01*
X123163990Y-48038106D01*
X122990993Y-48163796D01*
X122839796Y-48314993D01*
X122714105Y-48487991D01*
X122711727Y-48491873D01*
X122659914Y-48538748D01*
X122590984Y-48550169D01*
X122526822Y-48522512D01*
X122500273Y-48491873D01*
X122497894Y-48487991D01*
X122497891Y-48487987D01*
X122372206Y-48314996D01*
X122221004Y-48163794D01*
X122048009Y-48038106D01*
X121857483Y-47941027D01*
X121857480Y-47941026D01*
X121654117Y-47874951D01*
X121548516Y-47858225D01*
X121442916Y-47841500D01*
X121229084Y-47841500D01*
X121158684Y-47852650D01*
X121017882Y-47874951D01*
X120814519Y-47941026D01*
X120814516Y-47941027D01*
X120623990Y-48038106D01*
X120450997Y-48163793D01*
X120345818Y-48268972D01*
X120284495Y-48302456D01*
X120214803Y-48297472D01*
X120158870Y-48255600D01*
X120141958Y-48224629D01*
X120096889Y-48103796D01*
X120009261Y-47986739D01*
X119892204Y-47899111D01*
X119755203Y-47848011D01*
X119694654Y-47841500D01*
X119694638Y-47841500D01*
X117897362Y-47841500D01*
X117897345Y-47841500D01*
X117836797Y-47848011D01*
X117836795Y-47848011D01*
X117699795Y-47899111D01*
X117582739Y-47986739D01*
X117495111Y-48103795D01*
X117444011Y-48240795D01*
X117444011Y-48240797D01*
X117437500Y-48301345D01*
X116565416Y-48301345D01*
X116562602Y-48297472D01*
X116460798Y-48157350D01*
X116460794Y-48157345D01*
X116282654Y-47979205D01*
X116282649Y-47979201D01*
X116078848Y-47831132D01*
X116078847Y-47831131D01*
X116078845Y-47831130D01*
X116008747Y-47795413D01*
X115854383Y-47716760D01*
X115614785Y-47638910D01*
X115365962Y-47599500D01*
X115114038Y-47599500D01*
X114989626Y-47619205D01*
X114865214Y-47638910D01*
X114625616Y-47716760D01*
X114401151Y-47831132D01*
X114197350Y-47979201D01*
X114197345Y-47979205D01*
X114019205Y-48157345D01*
X114019201Y-48157350D01*
X113871132Y-48361151D01*
X113756760Y-48585616D01*
X113678910Y-48825214D01*
X113639500Y-49074038D01*
X100075500Y-49074038D01*
X100075500Y-47428092D01*
X100076097Y-47415938D01*
X100087494Y-47300222D01*
X100092234Y-47276389D01*
X100124216Y-47170959D01*
X100133508Y-47148526D01*
X100185442Y-47051365D01*
X100198938Y-47031166D01*
X100268827Y-46946006D01*
X100286006Y-46928827D01*
X100371166Y-46858938D01*
X100391365Y-46845442D01*
X100488526Y-46793508D01*
X100510959Y-46784216D01*
X100616389Y-46752234D01*
X100640220Y-46747494D01*
X100755939Y-46736097D01*
X100768093Y-46735500D01*
X100786531Y-46735500D01*
X163417365Y-46735500D01*
X163484404Y-46755185D01*
G37*
%TD.AperFunction*%
%TD*%
M02*
