%TF.GenerationSoftware,KiCad,Pcbnew,9.0.2*%
%TF.CreationDate,2025-06-17T16:20:43-04:00*%
%TF.ProjectId,Reaction_shield2,52656163-7469-46f6-9e5f-736869656c64,rev?*%
%TF.SameCoordinates,Original*%
%TF.FileFunction,Legend,Top*%
%TF.FilePolarity,Positive*%
%FSLAX46Y46*%
G04 Gerber Fmt 4.6, Leading zero omitted, Abs format (unit mm)*
G04 Created by KiCad (PCBNEW 9.0.2) date 2025-06-17 16:20:43*
%MOMM*%
%LPD*%
G01*
G04 APERTURE LIST*
%ADD10C,0.150000*%
%ADD11C,0.120000*%
G04 APERTURE END LIST*
D10*
X147365238Y-69494819D02*
X147603333Y-70494819D01*
X147603333Y-70494819D02*
X147793809Y-69780533D01*
X147793809Y-69780533D02*
X147984285Y-70494819D01*
X147984285Y-70494819D02*
X148222381Y-69494819D01*
X149127142Y-70494819D02*
X148555714Y-70494819D01*
X148841428Y-70494819D02*
X148841428Y-69494819D01*
X148841428Y-69494819D02*
X148746190Y-69637676D01*
X148746190Y-69637676D02*
X148650952Y-69732914D01*
X148650952Y-69732914D02*
X148555714Y-69780533D01*
X135253809Y-74518628D02*
X135253809Y-74994819D01*
X134920476Y-73994819D02*
X135253809Y-74518628D01*
X135253809Y-74518628D02*
X135587142Y-73994819D01*
X136444285Y-74994819D02*
X135872857Y-74994819D01*
X136158571Y-74994819D02*
X136158571Y-73994819D01*
X136158571Y-73994819D02*
X136063333Y-74137676D01*
X136063333Y-74137676D02*
X135968095Y-74232914D01*
X135968095Y-74232914D02*
X135872857Y-74280533D01*
X136365714Y-84042438D02*
X136270476Y-83994819D01*
X136270476Y-83994819D02*
X136127619Y-83994819D01*
X136127619Y-83994819D02*
X135984762Y-84042438D01*
X135984762Y-84042438D02*
X135889524Y-84137676D01*
X135889524Y-84137676D02*
X135841905Y-84232914D01*
X135841905Y-84232914D02*
X135794286Y-84423390D01*
X135794286Y-84423390D02*
X135794286Y-84566247D01*
X135794286Y-84566247D02*
X135841905Y-84756723D01*
X135841905Y-84756723D02*
X135889524Y-84851961D01*
X135889524Y-84851961D02*
X135984762Y-84947200D01*
X135984762Y-84947200D02*
X136127619Y-84994819D01*
X136127619Y-84994819D02*
X136222857Y-84994819D01*
X136222857Y-84994819D02*
X136365714Y-84947200D01*
X136365714Y-84947200D02*
X136413333Y-84899580D01*
X136413333Y-84899580D02*
X136413333Y-84566247D01*
X136413333Y-84566247D02*
X136222857Y-84566247D01*
X137365714Y-84994819D02*
X136794286Y-84994819D01*
X137080000Y-84994819D02*
X137080000Y-83994819D01*
X137080000Y-83994819D02*
X136984762Y-84137676D01*
X136984762Y-84137676D02*
X136889524Y-84232914D01*
X136889524Y-84232914D02*
X136794286Y-84280533D01*
X137023333Y-73454819D02*
X136690000Y-72978628D01*
X136451905Y-73454819D02*
X136451905Y-72454819D01*
X136451905Y-72454819D02*
X136832857Y-72454819D01*
X136832857Y-72454819D02*
X136928095Y-72502438D01*
X136928095Y-72502438D02*
X136975714Y-72550057D01*
X136975714Y-72550057D02*
X137023333Y-72645295D01*
X137023333Y-72645295D02*
X137023333Y-72788152D01*
X137023333Y-72788152D02*
X136975714Y-72883390D01*
X136975714Y-72883390D02*
X136928095Y-72931009D01*
X136928095Y-72931009D02*
X136832857Y-72978628D01*
X136832857Y-72978628D02*
X136451905Y-72978628D01*
X137880476Y-72454819D02*
X137690000Y-72454819D01*
X137690000Y-72454819D02*
X137594762Y-72502438D01*
X137594762Y-72502438D02*
X137547143Y-72550057D01*
X137547143Y-72550057D02*
X137451905Y-72692914D01*
X137451905Y-72692914D02*
X137404286Y-72883390D01*
X137404286Y-72883390D02*
X137404286Y-73264342D01*
X137404286Y-73264342D02*
X137451905Y-73359580D01*
X137451905Y-73359580D02*
X137499524Y-73407200D01*
X137499524Y-73407200D02*
X137594762Y-73454819D01*
X137594762Y-73454819D02*
X137785238Y-73454819D01*
X137785238Y-73454819D02*
X137880476Y-73407200D01*
X137880476Y-73407200D02*
X137928095Y-73359580D01*
X137928095Y-73359580D02*
X137975714Y-73264342D01*
X137975714Y-73264342D02*
X137975714Y-73026247D01*
X137975714Y-73026247D02*
X137928095Y-72931009D01*
X137928095Y-72931009D02*
X137880476Y-72883390D01*
X137880476Y-72883390D02*
X137785238Y-72835771D01*
X137785238Y-72835771D02*
X137594762Y-72835771D01*
X137594762Y-72835771D02*
X137499524Y-72883390D01*
X137499524Y-72883390D02*
X137451905Y-72931009D01*
X137451905Y-72931009D02*
X137404286Y-73026247D01*
X120365238Y-69494819D02*
X120603333Y-70494819D01*
X120603333Y-70494819D02*
X120793809Y-69780533D01*
X120793809Y-69780533D02*
X120984285Y-70494819D01*
X120984285Y-70494819D02*
X121222381Y-69494819D01*
X121555714Y-69590057D02*
X121603333Y-69542438D01*
X121603333Y-69542438D02*
X121698571Y-69494819D01*
X121698571Y-69494819D02*
X121936666Y-69494819D01*
X121936666Y-69494819D02*
X122031904Y-69542438D01*
X122031904Y-69542438D02*
X122079523Y-69590057D01*
X122079523Y-69590057D02*
X122127142Y-69685295D01*
X122127142Y-69685295D02*
X122127142Y-69780533D01*
X122127142Y-69780533D02*
X122079523Y-69923390D01*
X122079523Y-69923390D02*
X121508095Y-70494819D01*
X121508095Y-70494819D02*
X122127142Y-70494819D01*
X131131009Y-88880952D02*
X131178628Y-88738095D01*
X131178628Y-88738095D02*
X131226247Y-88690476D01*
X131226247Y-88690476D02*
X131321485Y-88642857D01*
X131321485Y-88642857D02*
X131464342Y-88642857D01*
X131464342Y-88642857D02*
X131559580Y-88690476D01*
X131559580Y-88690476D02*
X131607200Y-88738095D01*
X131607200Y-88738095D02*
X131654819Y-88833333D01*
X131654819Y-88833333D02*
X131654819Y-89214285D01*
X131654819Y-89214285D02*
X130654819Y-89214285D01*
X130654819Y-89214285D02*
X130654819Y-88880952D01*
X130654819Y-88880952D02*
X130702438Y-88785714D01*
X130702438Y-88785714D02*
X130750057Y-88738095D01*
X130750057Y-88738095D02*
X130845295Y-88690476D01*
X130845295Y-88690476D02*
X130940533Y-88690476D01*
X130940533Y-88690476D02*
X131035771Y-88738095D01*
X131035771Y-88738095D02*
X131083390Y-88785714D01*
X131083390Y-88785714D02*
X131131009Y-88880952D01*
X131131009Y-88880952D02*
X131131009Y-89214285D01*
X130654819Y-88309523D02*
X130654819Y-87642857D01*
X130654819Y-87642857D02*
X131654819Y-88309523D01*
X131654819Y-88309523D02*
X131654819Y-87642857D01*
X131654819Y-86738095D02*
X131654819Y-87309523D01*
X131654819Y-87023809D02*
X130654819Y-87023809D01*
X130654819Y-87023809D02*
X130797676Y-87119047D01*
X130797676Y-87119047D02*
X130892914Y-87214285D01*
X130892914Y-87214285D02*
X130940533Y-87309523D01*
X126613866Y-84570951D02*
X126613866Y-83809047D01*
X126994819Y-84189999D02*
X126232914Y-84189999D01*
X118084819Y-58166666D02*
X117608628Y-58499999D01*
X118084819Y-58738094D02*
X117084819Y-58738094D01*
X117084819Y-58738094D02*
X117084819Y-58357142D01*
X117084819Y-58357142D02*
X117132438Y-58261904D01*
X117132438Y-58261904D02*
X117180057Y-58214285D01*
X117180057Y-58214285D02*
X117275295Y-58166666D01*
X117275295Y-58166666D02*
X117418152Y-58166666D01*
X117418152Y-58166666D02*
X117513390Y-58214285D01*
X117513390Y-58214285D02*
X117561009Y-58261904D01*
X117561009Y-58261904D02*
X117608628Y-58357142D01*
X117608628Y-58357142D02*
X117608628Y-58738094D01*
X118084819Y-57214285D02*
X118084819Y-57785713D01*
X118084819Y-57499999D02*
X117084819Y-57499999D01*
X117084819Y-57499999D02*
X117227676Y-57595237D01*
X117227676Y-57595237D02*
X117322914Y-57690475D01*
X117322914Y-57690475D02*
X117370533Y-57785713D01*
X124584819Y-58356666D02*
X124108628Y-58689999D01*
X124584819Y-58928094D02*
X123584819Y-58928094D01*
X123584819Y-58928094D02*
X123584819Y-58547142D01*
X123584819Y-58547142D02*
X123632438Y-58451904D01*
X123632438Y-58451904D02*
X123680057Y-58404285D01*
X123680057Y-58404285D02*
X123775295Y-58356666D01*
X123775295Y-58356666D02*
X123918152Y-58356666D01*
X123918152Y-58356666D02*
X124013390Y-58404285D01*
X124013390Y-58404285D02*
X124061009Y-58451904D01*
X124061009Y-58451904D02*
X124108628Y-58547142D01*
X124108628Y-58547142D02*
X124108628Y-58928094D01*
X123680057Y-57975713D02*
X123632438Y-57928094D01*
X123632438Y-57928094D02*
X123584819Y-57832856D01*
X123584819Y-57832856D02*
X123584819Y-57594761D01*
X123584819Y-57594761D02*
X123632438Y-57499523D01*
X123632438Y-57499523D02*
X123680057Y-57451904D01*
X123680057Y-57451904D02*
X123775295Y-57404285D01*
X123775295Y-57404285D02*
X123870533Y-57404285D01*
X123870533Y-57404285D02*
X124013390Y-57451904D01*
X124013390Y-57451904D02*
X124584819Y-58023332D01*
X124584819Y-58023332D02*
X124584819Y-57404285D01*
X131584819Y-58356666D02*
X131108628Y-58689999D01*
X131584819Y-58928094D02*
X130584819Y-58928094D01*
X130584819Y-58928094D02*
X130584819Y-58547142D01*
X130584819Y-58547142D02*
X130632438Y-58451904D01*
X130632438Y-58451904D02*
X130680057Y-58404285D01*
X130680057Y-58404285D02*
X130775295Y-58356666D01*
X130775295Y-58356666D02*
X130918152Y-58356666D01*
X130918152Y-58356666D02*
X131013390Y-58404285D01*
X131013390Y-58404285D02*
X131061009Y-58451904D01*
X131061009Y-58451904D02*
X131108628Y-58547142D01*
X131108628Y-58547142D02*
X131108628Y-58928094D01*
X130584819Y-58023332D02*
X130584819Y-57404285D01*
X130584819Y-57404285D02*
X130965771Y-57737618D01*
X130965771Y-57737618D02*
X130965771Y-57594761D01*
X130965771Y-57594761D02*
X131013390Y-57499523D01*
X131013390Y-57499523D02*
X131061009Y-57451904D01*
X131061009Y-57451904D02*
X131156247Y-57404285D01*
X131156247Y-57404285D02*
X131394342Y-57404285D01*
X131394342Y-57404285D02*
X131489580Y-57451904D01*
X131489580Y-57451904D02*
X131537200Y-57499523D01*
X131537200Y-57499523D02*
X131584819Y-57594761D01*
X131584819Y-57594761D02*
X131584819Y-57880475D01*
X131584819Y-57880475D02*
X131537200Y-57975713D01*
X131537200Y-57975713D02*
X131489580Y-58023332D01*
X138084819Y-58356666D02*
X137608628Y-58689999D01*
X138084819Y-58928094D02*
X137084819Y-58928094D01*
X137084819Y-58928094D02*
X137084819Y-58547142D01*
X137084819Y-58547142D02*
X137132438Y-58451904D01*
X137132438Y-58451904D02*
X137180057Y-58404285D01*
X137180057Y-58404285D02*
X137275295Y-58356666D01*
X137275295Y-58356666D02*
X137418152Y-58356666D01*
X137418152Y-58356666D02*
X137513390Y-58404285D01*
X137513390Y-58404285D02*
X137561009Y-58451904D01*
X137561009Y-58451904D02*
X137608628Y-58547142D01*
X137608628Y-58547142D02*
X137608628Y-58928094D01*
X137418152Y-57499523D02*
X138084819Y-57499523D01*
X137037200Y-57737618D02*
X137751485Y-57975713D01*
X137751485Y-57975713D02*
X137751485Y-57356666D01*
X144584819Y-58356666D02*
X144108628Y-58689999D01*
X144584819Y-58928094D02*
X143584819Y-58928094D01*
X143584819Y-58928094D02*
X143584819Y-58547142D01*
X143584819Y-58547142D02*
X143632438Y-58451904D01*
X143632438Y-58451904D02*
X143680057Y-58404285D01*
X143680057Y-58404285D02*
X143775295Y-58356666D01*
X143775295Y-58356666D02*
X143918152Y-58356666D01*
X143918152Y-58356666D02*
X144013390Y-58404285D01*
X144013390Y-58404285D02*
X144061009Y-58451904D01*
X144061009Y-58451904D02*
X144108628Y-58547142D01*
X144108628Y-58547142D02*
X144108628Y-58928094D01*
X143584819Y-57451904D02*
X143584819Y-57928094D01*
X143584819Y-57928094D02*
X144061009Y-57975713D01*
X144061009Y-57975713D02*
X144013390Y-57928094D01*
X144013390Y-57928094D02*
X143965771Y-57832856D01*
X143965771Y-57832856D02*
X143965771Y-57594761D01*
X143965771Y-57594761D02*
X144013390Y-57499523D01*
X144013390Y-57499523D02*
X144061009Y-57451904D01*
X144061009Y-57451904D02*
X144156247Y-57404285D01*
X144156247Y-57404285D02*
X144394342Y-57404285D01*
X144394342Y-57404285D02*
X144489580Y-57451904D01*
X144489580Y-57451904D02*
X144537200Y-57499523D01*
X144537200Y-57499523D02*
X144584819Y-57594761D01*
X144584819Y-57594761D02*
X144584819Y-57832856D01*
X144584819Y-57832856D02*
X144537200Y-57928094D01*
X144537200Y-57928094D02*
X144489580Y-57975713D01*
X110571428Y-70204819D02*
X110571428Y-69204819D01*
X110571428Y-69585771D02*
X110666666Y-69538152D01*
X110666666Y-69538152D02*
X110857142Y-69538152D01*
X110857142Y-69538152D02*
X110952380Y-69585771D01*
X110952380Y-69585771D02*
X110999999Y-69633390D01*
X110999999Y-69633390D02*
X111047618Y-69728628D01*
X111047618Y-69728628D02*
X111047618Y-70014342D01*
X111047618Y-70014342D02*
X110999999Y-70109580D01*
X110999999Y-70109580D02*
X110952380Y-70157200D01*
X110952380Y-70157200D02*
X110857142Y-70204819D01*
X110857142Y-70204819D02*
X110666666Y-70204819D01*
X110666666Y-70204819D02*
X110571428Y-70157200D01*
X111333333Y-69538152D02*
X111714285Y-69538152D01*
X111476190Y-69204819D02*
X111476190Y-70061961D01*
X111476190Y-70061961D02*
X111523809Y-70157200D01*
X111523809Y-70157200D02*
X111619047Y-70204819D01*
X111619047Y-70204819D02*
X111714285Y-70204819D01*
X112047619Y-69538152D02*
X112047619Y-70204819D01*
X112047619Y-69633390D02*
X112095238Y-69585771D01*
X112095238Y-69585771D02*
X112190476Y-69538152D01*
X112190476Y-69538152D02*
X112333333Y-69538152D01*
X112333333Y-69538152D02*
X112428571Y-69585771D01*
X112428571Y-69585771D02*
X112476190Y-69681009D01*
X112476190Y-69681009D02*
X112476190Y-70204819D01*
X112904762Y-69300057D02*
X112952381Y-69252438D01*
X112952381Y-69252438D02*
X113047619Y-69204819D01*
X113047619Y-69204819D02*
X113285714Y-69204819D01*
X113285714Y-69204819D02*
X113380952Y-69252438D01*
X113380952Y-69252438D02*
X113428571Y-69300057D01*
X113428571Y-69300057D02*
X113476190Y-69395295D01*
X113476190Y-69395295D02*
X113476190Y-69490533D01*
X113476190Y-69490533D02*
X113428571Y-69633390D01*
X113428571Y-69633390D02*
X112857143Y-70204819D01*
X112857143Y-70204819D02*
X113476190Y-70204819D01*
X155321428Y-69954819D02*
X155321428Y-68954819D01*
X155321428Y-69335771D02*
X155416666Y-69288152D01*
X155416666Y-69288152D02*
X155607142Y-69288152D01*
X155607142Y-69288152D02*
X155702380Y-69335771D01*
X155702380Y-69335771D02*
X155749999Y-69383390D01*
X155749999Y-69383390D02*
X155797618Y-69478628D01*
X155797618Y-69478628D02*
X155797618Y-69764342D01*
X155797618Y-69764342D02*
X155749999Y-69859580D01*
X155749999Y-69859580D02*
X155702380Y-69907200D01*
X155702380Y-69907200D02*
X155607142Y-69954819D01*
X155607142Y-69954819D02*
X155416666Y-69954819D01*
X155416666Y-69954819D02*
X155321428Y-69907200D01*
X156083333Y-69288152D02*
X156464285Y-69288152D01*
X156226190Y-68954819D02*
X156226190Y-69811961D01*
X156226190Y-69811961D02*
X156273809Y-69907200D01*
X156273809Y-69907200D02*
X156369047Y-69954819D01*
X156369047Y-69954819D02*
X156464285Y-69954819D01*
X156797619Y-69288152D02*
X156797619Y-69954819D01*
X156797619Y-69383390D02*
X156845238Y-69335771D01*
X156845238Y-69335771D02*
X156940476Y-69288152D01*
X156940476Y-69288152D02*
X157083333Y-69288152D01*
X157083333Y-69288152D02*
X157178571Y-69335771D01*
X157178571Y-69335771D02*
X157226190Y-69431009D01*
X157226190Y-69431009D02*
X157226190Y-69954819D01*
X158226190Y-69954819D02*
X157654762Y-69954819D01*
X157940476Y-69954819D02*
X157940476Y-68954819D01*
X157940476Y-68954819D02*
X157845238Y-69097676D01*
X157845238Y-69097676D02*
X157750000Y-69192914D01*
X157750000Y-69192914D02*
X157654762Y-69240533D01*
D11*
%TO.C,W1*%
X150770000Y-74000000D02*
G75*
G02*
X145770000Y-74000000I-2500000J0D01*
G01*
X145770000Y-74000000D02*
G75*
G02*
X150770000Y-74000000I2500000J0D01*
G01*
X151260000Y-74000000D02*
G75*
G02*
X145710000Y-75544830I-2990000J0D01*
G01*
X145710000Y-72455170D02*
G75*
G02*
X151260000Y-74000000I2560000J-1544830D01*
G01*
X145710000Y-72455000D02*
X145710000Y-75545000D01*
%TO.C,Y1*%
X133170000Y-76955000D02*
X133170000Y-80045000D01*
X133170000Y-76955170D02*
G75*
G02*
X138720000Y-78500000I2560000J-1544830D01*
G01*
X138720000Y-78500000D02*
G75*
G02*
X133170000Y-80044830I-2990000J0D01*
G01*
X138230000Y-78500000D02*
G75*
G02*
X133230000Y-78500000I-2500000J0D01*
G01*
X133230000Y-78500000D02*
G75*
G02*
X138230000Y-78500000I2500000J0D01*
G01*
%TO.C,G1*%
X138270000Y-88500000D02*
G75*
G02*
X133270000Y-88500000I-2500000J0D01*
G01*
X133270000Y-88500000D02*
G75*
G02*
X138270000Y-88500000I2500000J0D01*
G01*
X138760000Y-88500000D02*
G75*
G02*
X133210000Y-90044830I-2990000J0D01*
G01*
X133210000Y-86955170D02*
G75*
G02*
X138760000Y-88500000I2560000J-1544830D01*
G01*
X133210000Y-86955000D02*
X133210000Y-90045000D01*
%TO.C,R6*%
X138230000Y-68000000D02*
G75*
G02*
X133230000Y-68000000I-2500000J0D01*
G01*
X133230000Y-68000000D02*
G75*
G02*
X138230000Y-68000000I2500000J0D01*
G01*
X138720000Y-68000000D02*
G75*
G02*
X133170000Y-69544830I-2990000J0D01*
G01*
X133170000Y-66455170D02*
G75*
G02*
X138720000Y-68000000I2560000J-1544830D01*
G01*
X133170000Y-66455000D02*
X133170000Y-69545000D01*
%TO.C,W2*%
X118710000Y-72455000D02*
X118710000Y-75545000D01*
X118710000Y-72455170D02*
G75*
G02*
X124260000Y-74000000I2560000J-1544830D01*
G01*
X124260000Y-74000000D02*
G75*
G02*
X118710000Y-75544830I-2990000J0D01*
G01*
X123770000Y-74000000D02*
G75*
G02*
X118770000Y-74000000I-2500000J0D01*
G01*
X118770000Y-74000000D02*
G75*
G02*
X123770000Y-74000000I2500000J0D01*
G01*
%TO.C,BZ1*%
X130100000Y-88000000D02*
G75*
G02*
X117900000Y-88000000I-6100000J0D01*
G01*
X117900000Y-88000000D02*
G75*
G02*
X130100000Y-88000000I6100000J0D01*
G01*
%TO.C,R1*%
X121370000Y-54730000D02*
X121040000Y-54730000D01*
X118630000Y-54730000D02*
X118960000Y-54730000D01*
X121370000Y-61270000D02*
X121370000Y-54730000D01*
X121040000Y-61270000D02*
X121370000Y-61270000D01*
X118960000Y-61270000D02*
X118630000Y-61270000D01*
X118630000Y-61270000D02*
X118630000Y-54730000D01*
%TO.C,R2*%
X125130000Y-61460000D02*
X125130000Y-54920000D01*
X125460000Y-61460000D02*
X125130000Y-61460000D01*
X127540000Y-61460000D02*
X127870000Y-61460000D01*
X127870000Y-61460000D02*
X127870000Y-54920000D01*
X125130000Y-54920000D02*
X125460000Y-54920000D01*
X127870000Y-54920000D02*
X127540000Y-54920000D01*
%TO.C,R3*%
X132130000Y-61460000D02*
X132130000Y-54920000D01*
X132460000Y-61460000D02*
X132130000Y-61460000D01*
X134540000Y-61460000D02*
X134870000Y-61460000D01*
X134870000Y-61460000D02*
X134870000Y-54920000D01*
X132130000Y-54920000D02*
X132460000Y-54920000D01*
X134870000Y-54920000D02*
X134540000Y-54920000D01*
%TO.C,R4*%
X141370000Y-54920000D02*
X141040000Y-54920000D01*
X138630000Y-54920000D02*
X138960000Y-54920000D01*
X141370000Y-61460000D02*
X141370000Y-54920000D01*
X141040000Y-61460000D02*
X141370000Y-61460000D01*
X138960000Y-61460000D02*
X138630000Y-61460000D01*
X138630000Y-61460000D02*
X138630000Y-54920000D01*
%TO.C,R5*%
X147870000Y-54920000D02*
X147540000Y-54920000D01*
X145130000Y-54920000D02*
X145460000Y-54920000D01*
X147870000Y-61460000D02*
X147870000Y-54920000D01*
X147540000Y-61460000D02*
X147870000Y-61460000D01*
X145460000Y-61460000D02*
X145130000Y-61460000D01*
X145130000Y-61460000D02*
X145130000Y-54920000D01*
%TO.C,btn2*%
X108500000Y-73250000D02*
X108500000Y-74750000D01*
X109750000Y-77250000D02*
X114250000Y-77250000D01*
X114250000Y-70750000D02*
X109750000Y-70750000D01*
X115500000Y-74750000D02*
X115500000Y-73250000D01*
%TO.C,btn1*%
X153250000Y-73000000D02*
X153250000Y-74500000D01*
X154500000Y-77000000D02*
X159000000Y-77000000D01*
X159000000Y-70500000D02*
X154500000Y-70500000D01*
X160250000Y-74500000D02*
X160250000Y-73000000D01*
%TO.C,J1*%
X126610000Y-96130000D02*
X127940000Y-96130000D01*
X126610000Y-97460000D02*
X126610000Y-96130000D01*
X129210000Y-96130000D02*
X147050000Y-96130000D01*
X129210000Y-98790000D02*
X129210000Y-96130000D01*
X129210000Y-98790000D02*
X147050000Y-98790000D01*
X147050000Y-98790000D02*
X147050000Y-96130000D01*
%TO.C,J3*%
X149470000Y-96130000D02*
X150800000Y-96130000D01*
X149470000Y-97460000D02*
X149470000Y-96130000D01*
X152070000Y-96130000D02*
X164830000Y-96130000D01*
X152070000Y-98790000D02*
X152070000Y-96130000D01*
X152070000Y-98790000D02*
X164830000Y-98790000D01*
X164830000Y-98790000D02*
X164830000Y-96130000D01*
%TO.C,J2*%
X117466000Y-47870000D02*
X118796000Y-47870000D01*
X117466000Y-49200000D02*
X117466000Y-47870000D01*
X120066000Y-47870000D02*
X142986000Y-47870000D01*
X120066000Y-50530000D02*
X120066000Y-47870000D01*
X120066000Y-50530000D02*
X142986000Y-50530000D01*
X142986000Y-50530000D02*
X142986000Y-47870000D01*
%TO.C,J4*%
X144390000Y-47870000D02*
X145720000Y-47870000D01*
X144390000Y-49200000D02*
X144390000Y-47870000D01*
X146990000Y-47870000D02*
X164830000Y-47870000D01*
X146990000Y-50530000D02*
X146990000Y-47870000D01*
X146990000Y-50530000D02*
X164830000Y-50530000D01*
X164830000Y-50530000D02*
X164830000Y-47870000D01*
%TD*%
M02*
