M48
; DRILL file {KiCad 9.0.2} date 2025-06-17T16:20:47-0400
; FORMAT={-:-/ absolute / metric / decimal}
; #@! TF.CreationDate,2025-06-17T16:20:47-04:00
; #@! TF.GenerationSoftware,Kicad,Pcbnew,9.0.2
; #@! TF.FileFunction,Plated,1,2,PTH
FMAT,2
METRIC
; #@! TA.AperFunction,Plated,PTH,ComponentDrill
T1C0.800
; #@! TA.AperFunction,Plated,PTH,ComponentDrill
T2C0.900
; #@! TA.AperFunction,Plated,PTH,ComponentDrill
T3C1.000
; #@! TA.AperFunction,Plated,PTH,ComponentDrill
T4C1.100
%
G90
G05
T1
X120.0Y-54.19
X120.0Y-61.81
X126.5Y-54.38
X126.5Y-62.0
X133.5Y-54.38
X133.5Y-62.0
X140.0Y-54.38
X140.0Y-62.0
X146.5Y-54.38
X146.5Y-62.0
T2
X120.0Y-74.0
X122.54Y-74.0
X134.46Y-68.0
X134.46Y-78.5
X134.5Y-88.5
X137.0Y-68.0
X137.0Y-78.5
X137.04Y-88.5
X147.0Y-74.0
X149.54Y-74.0
T3
X118.796Y-49.2
X121.336Y-49.2
X123.876Y-49.2
X124.0Y-84.2
X124.0Y-91.8
X126.416Y-49.2
X127.94Y-97.46
X128.956Y-49.2
X130.48Y-97.46
X131.496Y-49.2
X133.02Y-97.46
X134.036Y-49.2
X135.56Y-97.46
X136.576Y-49.2
X138.1Y-97.46
X139.116Y-49.2
X140.64Y-97.46
X141.656Y-49.2
X143.18Y-97.46
X145.72Y-49.2
X145.72Y-97.46
X148.26Y-49.2
X150.8Y-49.2
X150.8Y-97.46
X153.34Y-49.2
X153.34Y-97.46
X155.88Y-49.2
X155.88Y-97.46
X158.42Y-49.2
X158.42Y-97.46
X160.96Y-49.2
X160.96Y-97.46
X163.5Y-49.2
X163.5Y-97.46
T4
X108.75Y-71.75
X108.75Y-76.25
X115.25Y-71.75
X115.25Y-76.25
X153.5Y-71.5
X153.5Y-76.0
X160.0Y-71.5
X160.0Y-76.0
M30
